<svg id="Login" xmlns="http://www.w3.org/2000/svg" width="450" height="337.62" viewBox="0 0 450 337.62">
  <g id="OBJECTS">
    <path id="Path_1" data-name="Path 1" d="M363,321.1a65.58,65.58,0,0,0,65.39-65.39h0A65.58,65.58,0,0,0,363,190.33h0a27.73,27.73,0,0,1-27.65-27.65h0A27.73,27.73,0,0,1,363,135h3.29A28.82,28.82,0,0,0,395,106.29h0a28.83,28.83,0,0,0-28.7-28.75H356.21A11.22,11.22,0,0,1,345,66.35h0a11.22,11.22,0,0,1,11.19-11.19h7.41a7.75,7.75,0,0,0,7.73-7.72h0a7.75,7.75,0,0,0-7.73-7.72H313.77a12.17,12.17,0,0,1-12.14-12.14h0a12.17,12.17,0,0,1,12.14-12.13h14.9a7.75,7.75,0,0,0,7.73-7.73h0A7.75,7.75,0,0,0,328.67,0H110.33a10.11,10.11,0,0,0-10.08,10.08h0a10.11,10.11,0,0,0,10.08,10.08h15.29A15.88,15.88,0,0,1,141.46,36h0a15.89,15.89,0,0,1-15.84,15.84H66.47A10.1,10.1,0,0,0,56.4,61.9h0A10.1,10.1,0,0,0,66.47,72h9.68a14.64,14.64,0,0,1,14.6,14.6h0a14.65,14.65,0,0,1-14.6,14.61H63a37.61,37.61,0,0,0-37.51,37.5h0A37.62,37.62,0,0,0,63,176.2h4.29a36.18,36.18,0,0,1,36.08,36.08h0a36.18,36.18,0,0,1-36.08,36.07H58a36.49,36.49,0,0,0-36.4,36.38h0A36.48,36.48,0,0,0,58,321.1ZM84.54,20.16A10.08,10.08,0,1,1,94.62,10.08,10.08,10.08,0,0,1,84.54,20.16Zm300.76,35a7.72,7.72,0,1,1,7.7-7.72,7.72,7.72,0,0,1-7.7,7.72Z" fill="#979797" fill-rule="evenodd"/>
    <path id="Path_2" data-name="Path 2" d="M36.55,314.07v-8.31h-8.2l-.23-.33H55.38V294.6H23a1.981,1.981,0,0,0-.08-.33H36.55V283.45H21.63v-.33H55.38V272.29H23.81l.12-.33H36.55V261.13h-6.2l.29-.33H55.38V250H47.26l1.13-.33H74.21v-2l.33-.07v2h37.33V238.82H91.64l.36-.33h1v-1l.33-.33v1.36h37.32V227.66H99.88l.16-.33h11.83V216.5H103.1v-.33h27.55V205.34h-28l-.06-.33h9.26V194.19H98.45l-.19-.33h32.43V183H93.37v4.4l-.33-.34V183H88.33l-.47-.33h24v-10.8H74.54v5.07l-.33-.06v-5H45.55l-.61-.33H55.38V160.72H32.67l-.24-.33h4.12V149.56H27.09a1.385,1.385,0,0,0-.1-.33H55.38V138.4H25.48v-.33H36.55V127.24H27.27a1.422,1.422,0,0,1,.11-.33h28V116.09H33.11a4.081,4.081,0,0,1,.25-.33h3.19v-3.62l.33-.32v3.94H74.21V104.93H46.7l.7-.33h8V102l.33-.07v2.7H93V93.77H88.85l.18-.33h22.84V82.61H90.2a1.042,1.042,0,0,0-.1-.33H93V71.46H63.27c-.29-.1-.57-.21-.85-.33H74.21V60.3H56.53v-.33H93V51.83h.33V60h37.32V51l.33-.12V60h37.33V49.14h-33.9l.47-.33h14.64V38h-8.19v-.33h27V26.83H138.51l-.24-.33h11.25V15.67H112.2v4.49h-.33V15.67H102c-.07-.11-.15-.22-.21-.33h28.94V4.51H101.94l.23-.33h9.7V0h.33V4.18h37.32V0h.33V4.18h37.33V0h.33V4.18h37.32V0h.33V4.18h37.33V0h.33V4.18h37.33V0h.33V4.18h35c.06.11.11.22.16.33H319.31V15.34H330a7.62,7.62,0,0,1-1.28.11h-14.9a11.75,11.75,0,0,0-2.31.22h-11V26.5h1.2v.33h-20V37.65H307a5.693,5.693,0,0,0,.52.33h-7.06V48.81h37.33V39.72h.32v9.09H371.2a.646.646,0,0,1-.06.33H357v6h-.33v-6H319.31V60H347l-.22.33H338.1v10.8h8l.17.33H319.31V82.28h37.32V77.54H357v4.74h25.1l.49.33h-6.76V93.44H392l.17.33H357V104.6h37.33V99.75q.18.8.33,1.62v3.23H395v.33H375.79v10.83h17.64a1.07,1.07,0,0,1-.11.33H357v10.82h29.31l-.35.33H375.79v6.17l-.33.12v-6.29H338.13v10.83h12.32l-.62.33H319.31v10.83h19.57l-.18.33h-.57v1.09c-.11.24-.22.47-.32.7v-1.79H300.48v10.83h35v.33H319.31v10.82h17.52l.12.33H300.48V182.7h37.33V174c.1.24.21.47.32.71v8H344l.36.33h-25v10.83h37.32v-4.28l.33.07v4.21H384.2l.93.33h-9.29V205h28.39l.41.33h-10v10.83H415l.26.33h-1.8v10.83h8.42c.06.11.11.22.16.33H394.62v10.83h31.46a1.323,1.323,0,0,0,.08.33H413.45v10.82h14.66v.33H394.62V260.8H428.2v.33H413.45V272h12.89l-.09.33H394.62v10.83h27.72l-.16.33h-8.73v10.82h2.28l-.24.33H394.62v10.83h10.73l-.38.33H375.79v10.83h11l-.86.33H357v4.18h-.33v-4.18H319.31v4.18H319v-4.18H281.65v4.18h-.33v-4.18H244v4.18h-.33v-4.18H206.34v4.18H206v-4.18H168.68v4.18h-.33v-4.18H131v4.18h-.33v-4.18H93.37v4.18H93v-4.18H55.71V321h-.33v-4.09H41.1l-.61-.33H74.21V305.76H36.88v8.55ZM92.93,15.67c.15-.23.3-.47.44-.72V5.21L93,4.65V15.34H76a3,3,0,0,0,.21.33Zm0-11.16-.22-.33H76.37l-.23.33ZM377.76,49.14h15.07a1.941,1.941,0,0,1,.07-.33H377.7A.646.646,0,0,0,377.76,49.14Zm-2.3,256.62H338.13v10.83h37.33Zm-37.65,0H300.48v10.83h37.33V305.76Zm-37.66,0H262.82v10.83h37.33Zm-37.66,0H225.16v10.83h37.33V305.76Zm-37.66,0H187.51v10.83h37.32V305.76Zm-37.65,0H149.85v10.83h37.33V305.76Zm-37.66,0H112.2v10.83h37.32V305.76Zm-37.65,0H74.54v10.83h37.33V305.76ZM394.29,294.6H357v10.83h37.33V294.6Zm-37.66,0H319.31v10.83h37.32Zm-37.65,0H281.65v10.83H319V294.6Zm-37.66,0H244v10.83h37.33V294.6Zm-37.66,0H206.34v10.83h37.32Zm-37.65,0H168.68v10.83H206V294.6Zm-37.66,0H131v10.83h37.33V294.6Zm-37.66,0H93.37v10.83h37.32ZM93,294.6H55.71v10.83H93Zm320.08-11.15H375.79v10.82h37.33V283.45Zm-37.66,0H338.13v10.82h37.33V283.45Zm-37.65,0H300.48v10.82h37.33V283.45Zm-37.66,0H262.82v10.82h37.33V283.45Zm-37.66,0H225.16v10.82h37.33V283.45Zm-37.66,0H187.51v10.82h37.32V283.45Zm-37.65,0H149.85v10.82h37.33V283.45Zm-37.66,0H112.2v10.82h37.32V283.45Zm-37.65,0H74.54v10.82h37.33V283.45Zm-37.66,0H36.88v10.82H74.21V283.45Zm320.08-11.16H357v10.83h37.33V272.29Zm-37.66,0H319.31v10.83h37.32V272.29Zm-37.65,0H281.65v10.83H319V272.29Zm-37.66,0H244v10.83h37.33V272.29Zm-37.66,0H206.34v10.83h37.32V272.29Zm-37.65,0H168.68v10.83H206V272.29Zm-37.66,0H131v10.83h37.33V272.29Zm-37.66,0H93.37v10.83h37.32V272.29Zm-37.65,0H55.71v10.83H93V272.29Zm320.08-11.16H375.79V272h37.33V261.13Zm-37.66,0H338.13V272h37.33V261.13Zm-37.65,0H300.48V272h37.33V261.13Zm-37.66,0H262.82V272h37.33V261.13Zm-37.66,0H225.16V272h37.33V261.13Zm-37.66,0H187.51V272h37.32V261.13Zm-37.65,0H149.85V272h37.33V261.13Zm-37.66,0H112.2V272h37.32V261.13Zm-37.65,0H74.54V272h37.33V261.13Zm-37.66,0H36.88V272H74.21V261.13ZM394.29,250H357v10.8h37.33V250Zm-37.66,0H319.31v10.8h37.32ZM319,250H281.65v10.8H319Zm-37.66,0H244v10.8h37.33V250Zm-37.66,0H206.34v10.8h37.32V250ZM206,250H168.68v10.8H206Zm-37.66,0H131v10.8h37.33V250Zm-37.66,0H93.37v10.8h37.32V250ZM93,250H55.71v10.8H93Zm320.08-11.15H375.79v10.82h37.33V238.82Zm-37.66,0H338.13v10.82h37.33V238.82Zm-37.65,0H300.48v10.82h37.33V238.82Zm-37.66,0H262.82v10.82h37.33V238.82Zm-37.66,0H225.16v10.82h37.33V238.82Zm-37.66,0H187.51v10.82h37.32V238.82Zm-37.65,0H149.85v10.82h37.33V238.82Zm-37.66,0H112.2v10.82h37.32V238.82Zm244.77-11.16H357v10.83h37.33V227.66Zm-37.66,0H319.31v10.83h37.32V227.66Zm-37.65,0H281.65v10.83H319V227.66Zm-37.66,0H244v10.83h37.33V227.66Zm-37.66,0H206.34v10.83h37.32V227.66Zm-37.65,0H168.68v10.83H206V227.66Zm-37.66,0H131v10.83h37.33V227.66ZM413.12,216.5H375.79v10.83h37.33Zm-37.66,0H338.13v10.83h37.33V216.5Zm-37.65,0H300.48v10.83h37.33Zm-37.66,0H262.82v10.83h37.33V216.5Zm-37.66,0H225.16v10.83h37.33Zm-37.66,0H187.51v10.83h37.32Zm-37.65,0H149.85v10.83h37.33V216.5Zm-37.66,0H112.2v10.83h37.32Zm244.77-11.16H357v10.83h37.33V205.34Zm-37.66,0H319.31v10.83h37.32V205.34Zm-37.65,0H281.65v10.83H319V205.34Zm-37.66,0H244v10.83h37.33V205.34Zm-37.66,0H206.34v10.83h37.32V205.34Zm-37.65,0H168.68v10.83H206V205.34Zm-37.66,0H131v10.83h37.33V205.34Zm207.11-11.15H338.13V205h37.33V194.19Zm-37.65,0H300.48V205h37.33V194.19Zm-37.66,0H262.82V205h37.33V194.19Zm-37.66,0H225.16V205h37.33V194.19Zm-37.66,0H187.51V205h37.32V194.19Zm-37.65,0H149.85V205h37.33V194.19Zm-37.66,0H112.2V205h37.32V194.19ZM319,183H281.65v10.83H319Zm-37.66,0H244v10.83h37.33V183Zm-37.66,0H206.34v10.83h37.32V183ZM206,183H168.68v10.83H206Zm-37.66,0H131v10.83h37.33V183Zm131.8-11.16H262.82V182.7h37.33V171.87Zm-37.66,0H225.16V182.7h37.33V171.87Zm-37.66,0H187.51V182.7h37.32V171.87Zm-37.65,0H149.85V182.7h37.33V171.87Zm-37.66,0H112.2V182.7h37.32V171.87ZM319,160.72H281.65v10.82H319Zm-37.66,0H244v10.82h37.33V160.72Zm-37.66,0H206.34v10.82h37.32V160.72Zm-37.65,0H168.68v10.82H206V160.72Zm-37.66,0H131v10.82h37.33V160.72Zm-37.66,0H93.37v10.82h37.32V160.72Zm-37.65,0H55.71v10.82H93V160.72Zm207.11-11.16H262.82v10.83h37.33V149.56Zm-37.66,0H225.16v10.83h37.33V149.56Zm-37.66,0H187.51v10.83h37.32V149.56Zm-37.65,0H149.85v10.83h37.33V149.56Zm-37.66,0H112.2v10.83h37.32V149.56Zm-37.65,0H74.54v10.83h37.33V149.56Zm-37.66,0H36.88v10.83H74.21V149.56ZM319,138.4H281.65v10.83H319Zm-37.66,0H244v10.83h37.33V138.4Zm-37.66,0H206.34v10.83h37.32V138.4Zm-37.65,0H168.68v10.83H206V138.4Zm-37.66,0H131v10.83h37.33V138.4Zm-37.66,0H93.37v10.83h37.32V138.4ZM93,138.4H55.71v10.83H93Zm244.77-11.16H300.48v10.83h37.33V127.24Zm-37.66,0H262.82v10.83h37.33V127.24Zm-37.66,0H225.16v10.83h37.33V127.24Zm-37.66,0H187.51v10.83h37.32V127.24Zm-37.65,0H149.85v10.83h37.33V127.24Zm-37.66,0H112.2v10.83h37.32V127.24Zm-37.65,0H74.54v10.83h37.33V127.24Zm-37.66,0H36.88v10.83H74.21V127.24Zm282.42-11.15H319.31v10.82h37.32V116.09Zm-37.65,0H281.65v10.82H319V116.09Zm-37.66,0H244v10.82h37.33V116.09Zm-37.66,0H206.34v10.82h37.32V116.09Zm-37.65,0H168.68v10.82H206V116.09Zm-37.66,0H131v10.82h37.33V116.09Zm-37.66,0H93.37v10.82h37.32V116.09Zm-37.65,0H55.71v10.82H93V116.09Zm282.42-11.16H338.13v10.83h37.33V104.93Zm-37.65,0H300.48v10.83h37.33V104.93Zm-37.66,0H262.82v10.83h37.33V104.93Zm-37.66,0H225.16v10.83h37.33V104.93Zm-37.66,0H187.51v10.83h37.32V104.93Zm-37.65,0H149.85v10.83h37.33V104.93Zm-37.66,0H112.2v10.83h37.32V104.93Zm-37.65,0H74.54v10.83h37.33V104.93Zm244.8-11.16H319.31V104.6h37.32Zm-37.65,0H281.65V104.6H319V93.77Zm-37.66,0H244V104.6h37.33V93.77Zm-37.66,0H206.34V104.6h37.32Zm-37.65,0H168.68V104.6H206V93.77Zm-37.66,0H131V104.6h37.33V93.77Zm-37.66,0H93.37V104.6h37.32ZM375.46,82.61H338.13V93.44h37.33V82.61Zm-37.65,0H300.48V93.44h37.33Zm-37.66,0H262.82V93.44h37.33V82.61Zm-37.66,0H225.16V93.44h37.33Zm-37.66,0H187.51V93.44h37.32Zm-37.65,0H149.85V93.44h37.33V82.61Zm-37.66,0H112.2V93.44h37.32ZM319,71.46H281.65V82.28H319Zm-37.66,0H244V82.28h37.33V71.46Zm-37.66,0H206.34V82.28h37.32V71.46Zm-37.65,0H168.68V82.28H206V71.46Zm-37.66,0H131V82.28h37.33V71.46Zm-37.66,0H93.37V82.28h37.32V71.46ZM337.81,60.3H300.48V71.13h37.33Zm-37.66,0H262.82V71.13h37.33V60.3Zm-37.66,0H225.16V71.13h37.33Zm-37.66,0H187.51V71.13h37.32Zm-37.65,0H149.85V71.13h37.33V60.3Zm-37.66,0H112.2V71.13h37.32Zm-37.65,0H74.54V71.13h37.33V60.3ZM319,49.14H281.65V60H319Zm-37.66,0H244V60h37.33V49.14Zm-37.66,0H206.34V60h37.32V49.14Zm-37.65,0H168.68V60H206V49.14ZM300.15,38H262.82V48.81h37.33V38Zm-37.66,0H225.16V48.81h37.33Zm-37.66,0H187.51V48.81h37.32Zm-37.65,0H149.85V48.81h37.33V38Zm94.14-11.15H244v10.8h37.33V26.83Zm-37.66,0H206.34v10.8h37.32V26.83Zm-37.65,0H168.68v10.8H206V26.83Zm94.14-11.16H262.82V26.5h37.33V15.67Zm-37.66,0H225.16V26.5h37.33V15.67Zm-37.66,0H187.51V26.5h37.32V15.67Zm-37.65,0H149.85V26.5h37.33V15.67ZM319,4.51H281.65V15.34H319Zm-37.66,0H244V15.34h37.33V4.51Zm-37.66,0H206.34V15.34h37.32V4.51ZM206,4.51H168.68V15.34H206Zm-37.66,0H131V15.34h37.33Z" fill="#c8dee1" fill-rule="evenodd"/>
    <path id="Path_3" data-name="Path 3" d="M135,104.78h0a.84.84,0,0,1,.84.84v1.59a.84.84,0,0,1-.84.84h0a.85.85,0,0,1-.85-.85v-1.59a.85.85,0,0,1,.85-.83Z" fill="#abc4c8"/>
    <path id="Path_4" data-name="Path 4" d="M135,108.6h0a.84.84,0,0,1,.84.84V111a.84.84,0,0,1-.84.84h0a.85.85,0,0,1-.85-.85V109.4a.85.85,0,0,1,.85-.85Z" fill="#abc4c8"/>
    <path id="Path_5" data-name="Path 5" d="M135,112.37h0a.84.84,0,0,1,.84.84v1.59a.84.84,0,0,1-.84.84h0a.85.85,0,0,1-.85-.85V113.2a.85.85,0,0,1,.85-.83Z" fill="#abc4c8"/>
    <path id="Path_6" data-name="Path 6" d="M135,116.13h0a.84.84,0,0,1,.84.84v1.59a.84.84,0,0,1-.84.84h0a.85.85,0,0,1-.85-.85V117a.85.85,0,0,1,.85-.87Z" fill="#abc4c8"/>
    <path id="Path_7" data-name="Path 7" d="M135,119.9h0a.84.84,0,0,1,.84.84v1.59a.84.84,0,0,1-.84.84h0a.85.85,0,0,1-.85-.85v-1.59a.85.85,0,0,1,.85-.85Z" fill="#abc4c8"/>
    <path id="Path_8" data-name="Path 8" d="M135,123.67h0a.84.84,0,0,1,.84.84v1.59a.84.84,0,0,1-.84.84h0a.85.85,0,0,1-.85-.85V124.5a.85.85,0,0,1,.85-.83Z" fill="#abc4c8"/>
    <path id="Path_9" data-name="Path 9" d="M135,127.44h0a.84.84,0,0,1,.84.84v1.59a.84.84,0,0,1-.84.84h0a.85.85,0,0,1-.85-.85v-1.59a.85.85,0,0,1,.85-.85Z" fill="#abc4c8"/>
    <path id="Path_10" data-name="Path 10" d="M135,131.2h0a.84.84,0,0,1,.84.84v1.59a.84.84,0,0,1-.84.84h0a.85.85,0,0,1-.85-.85V132a.85.85,0,0,1,.85-.8Z" fill="#abc4c8"/>
    <path id="Path_11" data-name="Path 11" d="M135.52,133.46a.86.86,0,0,1,.75.57l2.07,6.53a.41.41,0,0,1-.39.57h-6a.41.41,0,0,1-.39-.57l2.07-6.53a.86.86,0,0,1,.75-.57Z" fill="#fff" fill-rule="evenodd"/>
    <rect id="Rectangle_4" data-name="Rectangle 4" width="4.16" height="204.66" rx="0.97" transform="translate(149.96 108.77)" fill="#7a9297"/>
    <rect id="Rectangle_5" data-name="Rectangle 5" width="11.47" height="22.54" rx="2.66" transform="translate(146.3 91.19)" fill="#7a9297"/>
    <rect id="Rectangle_6" data-name="Rectangle 6" width="11.47" height="17.21" rx="2.66" transform="translate(146.3 304.82)" fill="#7a9297"/>
    <path id="Path_12" data-name="Path 12" d="M163.73,323.37H140.35a2.3,2.3,0,0,1-2.3-2.3h0a2.3,2.3,0,0,1,2.3-2.29h23.38a2.3,2.3,0,0,1,2.29,2.29h0a2.3,2.3,0,0,1-2.29,2.3Z" fill="#7a9297" fill-rule="evenodd"/>
    <path id="Path_13" data-name="Path 13" d="M152,65.19h10.8a4.5,4.5,0,0,1,4,3l10.89,34.4a2.13,2.13,0,0,1-2.06,3h-47.2a2.14,2.14,0,0,1-2.06-3l10.89-34.4a4.51,4.51,0,0,1,4-3Z" fill="#fff" fill-rule="evenodd"/>
    <path id="Path_14" data-name="Path 14" d="M172.94,87.56l1.24,3.92H129.9l1.24-3.92Zm2,6.3,2.49,7.85H126.66l2.48-7.85Z" fill="#c8dee1" fill-rule="evenodd"/>
    <circle id="Ellipse_1" data-name="Ellipse 1" cx="0.47" cy="0.47" r="0.47" transform="translate(134.49 107.86)" fill="#7a9297"/>
    <path id="Path_15" data-name="Path 15" d="M135,112.57a.48.48,0,0,0,.47-.48.5.5,0,1,0-1,0,.48.48,0,0,0,.53.48Z" fill="#7a9297" fill-rule="evenodd"/>
    <path id="Path_16" data-name="Path 16" d="M135,116.34a.48.48,0,0,0,.47-.48.5.5,0,0,0-1,0,.48.48,0,0,0,.53.48Z" fill="#7a9297" fill-rule="evenodd"/>
    <path id="Path_17" data-name="Path 17" d="M135,120.1a.47.47,0,0,0,.47-.47.5.5,0,0,0-1,0,.47.47,0,0,0,.53.47Z" fill="#7a9297" fill-rule="evenodd"/>
    <circle id="Ellipse_2" data-name="Ellipse 2" cx="0.47" cy="0.47" r="0.47" transform="translate(134.49 122.93)" fill="#7a9297"/>
    <circle id="Ellipse_3" data-name="Ellipse 3" cx="0.47" cy="0.47" r="0.47" transform="translate(134.49 126.69)" fill="#7a9297"/>
    <circle id="Ellipse_4" data-name="Ellipse 4" cx="0.47" cy="0.47" r="0.47" transform="translate(134.49 130.46)" fill="#7a9297"/>
    <path id="Path_18" data-name="Path 18" d="M233.15,176h11.48c5.12,0,8.62-1.69,13-9.29l9.92-17.17s3.78-6.2,13.46-6.2h29.05c3.73,0,11.06.55,13.55,6.5s12.1,29.3,12.1,29.3l-18.32,1.41L299.82,210.4s-24.21,1.94-29.05,1.39-23.24-1.66-23.24-1.66Z" fill="#ea574d" fill-rule="evenodd"/>
    <path id="Path_19" data-name="Path 19" d="M272.05,98.43a15.37,15.37,0,0,0-6.67,4.25c-1.76,1.89-21,38.44-22.56,40.89s-2.28,8.94.05,13.23,16,28.51,16,28.51l5.2-7.75s-10.94-24.2-11.42-25.42-.65-2.37.71-4.21,14.9-18.13,14.9-18.13S278,106.6,272.05,98.43Z" fill="#141a33" fill-rule="evenodd"/>
    <rect id="Rectangle_7" data-name="Rectangle 7" width="2.98" height="99.86" rx="1.09" transform="translate(282.97 219.32)" fill="#00000f"/>
    <rect id="Rectangle_8" data-name="Rectangle 8" width="11.14" height="12.08" rx="4.07" transform="translate(278.89 216.54)" fill="#141a33"/>
    <rect id="Rectangle_9" data-name="Rectangle 9" width="9.3" height="5.96" rx="2.18" transform="translate(279.81 313.22)" fill="#141a33"/>
    <rect id="Rectangle_10" data-name="Rectangle 10" width="32.92" height="9.15" rx="3.34" transform="translate(268 316.2)" fill="#030822"/>
    <path id="Path_20" data-name="Path 20" d="M305.35,218.56h0a2.88,2.88,0,0,0-2.87-2.87H266.43a2.88,2.88,0,0,0-2.87,2.87h0a2.88,2.88,0,0,0,2.87,2.87h36.05A2.88,2.88,0,0,0,305.35,218.56Z" fill="#030822" fill-rule="evenodd"/>
    <path id="Path_21" data-name="Path 21" d="M313.08,217.37h0a1.63,1.63,0,0,0-1.62-1.62H257.51a1.63,1.63,0,0,0-1.62,1.62h0a1.63,1.63,0,0,0,1.62,1.63h53.95a1.63,1.63,0,0,0,1.62-1.63Z" fill="#00000f" fill-rule="evenodd"/>
    <path id="Path_22" data-name="Path 22" d="M274.83,211.08h36.56a3.19,3.19,0,0,1,3.18,3.18h0a3.2,3.2,0,0,1-3.18,3.19H274.83a3.2,3.2,0,0,1-3.18-3.19h0A3.19,3.19,0,0,1,274.83,211.08Z" fill="#c83c4a" fill-rule="evenodd"/>
    <path id="Path_23" data-name="Path 23" d="M254,211.08h31.17a3.19,3.19,0,0,1,3.18,3.18h0a3.2,3.2,0,0,1-3.18,3.19H254a3.2,3.2,0,0,1-3.18-3.19h0A3.19,3.19,0,0,1,254,211.08Z" fill="#da5252" fill-rule="evenodd"/>
    <path id="Path_24" data-name="Path 24" d="M318.91,149.82c2.09,5,9.21,22.29,11.43,27.68h3a2.62,2.62,0,0,1,2.42,1.62s-9.61-23.35-12.1-29.3-9.82-6.5-13.55-6.5H305.4C309.09,143.32,316.42,143.87,318.91,149.82Z" fill="#d84743" fill-rule="evenodd"/>
    <path id="Path_25" data-name="Path 25" d="M220.28,181.2a2.61,2.61,0,1,1,0-5.22h14.11a2.63,2.63,0,0,1,2.45,1.68L251,209h47.71l17.09-30.21a2.59,2.59,0,0,1,2.27-1.32h15.21a2.62,2.62,0,1,1,0,5.23h-13.7l-17,30a2.6,2.6,0,0,1-2.37,1.5h-50.9a2.61,2.61,0,0,1-2.38-1.539L232.71,181.2Z" fill="#ec6957" fill-rule="evenodd"/>
    <path id="Path_26" data-name="Path 26" d="M230.27,295.43s-16.54-78.18-17.38-87c-.81-8.48-5.47-20.65,48.38-29,2.27-.36,4-2.65,6.51-3,0,0,42.9,2.08,47.62,4s-7.66,18.05-47.83,21.86-29.89,17.37-29.89,17.37,1.45,71.84,2.41,75.62S234.17,301,230.27,295.43Z" fill="#00000f" fill-rule="evenodd"/>
    <path id="Path_27" data-name="Path 27" d="M269.59,172.11c-1.82.82-5,7.89-7.25,8.74-9,3.32-20.5,6.84-25.95,10.53-5.81,3.94-8.21,9.7-10,14.28-2.33,6-29.66,69-31.25,71.59s3.2,6.88,5.1,7.84,4.49-2.58,4.49-2.58,34.45-59,44.44-73.52h42.65s13.69-2.2,21.13-11.85c8-10.38,1.4-35.71-2.12-36.05-6.69-.64-27.44-3.89-38.17,1.36C266.18,165.68,272.55,172.14,269.59,172.11Z" fill="#030822" fill-rule="evenodd"/>
    <path id="Path_28" data-name="Path 28" d="M269.59,172.11c-1.82.82-5,7.89-7.25,8.74l-2.23.81s22.18-4.93,28.78,2.41,5.88,18.21-15.12,19-24.25.73-27.25,0-25.59,44.74-31.52,51.2c-2.28,2.49-5.78,1.44-9.22-.78-5.47,12.47-10,22.73-10.65,23.76-1.6,2.64,3.2,6.88,5.1,7.84s4.49-2.58,4.49-2.58,34.45-59,44.44-73.52h42.65s13.69-2.2,21.13-11.85c8-10.38,1.4-35.71-2.12-36.05-6.69-.64-27.44-3.89-38.17,1.36C266.18,165.68,272.55,172.14,269.59,172.11Z" fill="#00000f" fill-rule="evenodd"/>
    <rect id="Rectangle_11" data-name="Rectangle 11" width="7.96" height="9.99" rx="1.15" transform="translate(187.247 282.382) rotate(-62.83)" fill="#d84743"/>
    <path id="Path_29" data-name="Path 29" d="M203,292.77a6.919,6.919,0,0,0,.27.89,16.831,16.831,0,0,1-1.24,2.69c-.4.93-1.25,1.55-2.21,1.06l-5.81-3,3.45-4.5,3.34-.81Z" fill="#f2dddc" fill-rule="evenodd"/>
    <path id="Path_30" data-name="Path 30" d="M191.72,272.69h12.1a1.44,1.44,0,0,1,1.44,1.44v7.1a1.45,1.45,0,0,1-1.45,1.45h-12.1a1.45,1.45,0,0,1-1.45-1.45v-7.1a1.45,1.45,0,0,1,1.45-1.45Z" transform="translate(-139.58 326.82) rotate(-62.83)" fill="#d84743"/>
    <path id="Path_31" data-name="Path 31" d="M198.34,289.71c.65-.49,1.55.56,2.44-.59,3.08-4,6.81-12.57,6.31-12.82l-3.27-1.68c-.39-.2.12.31-1.83.54-1.57-.81-4.69,3.83-7.6,5.71-1.64,1.05-1.67.89-2.41.51l-.9-.46c-.57-.29-2.24-.49.17-2.25s4.6-3.55,5.1-4.54a4.91,4.91,0,0,0-.18-3.42c-.28-.5-1.75-.31-2.15-.17a2,2,0,0,0-1.08,1.09l-1.76,3.43c-.4.79-7.31,3.41-8.31,5.36s-.85,1.66-1.08,2.11a2.06,2.06,0,0,0-.22,1.19,3.44,3.44,0,0,1,0,.7L196.22,292a5.43,5.43,0,0,0,2.12-2.29Z" fill="#ec6957" fill-rule="evenodd"/>
    <path id="Path_32" data-name="Path 32" d="M203,292.77l3.19-6.21c.5-1-.12-2.18.57-3.53s1.92-3.74,2.16-4.21-.48-1.85-.85-2l-3.26-1.69s.45,2,.46,2.2a39.137,39.137,0,0,1-2.11,4.11c-.69,1.34,0,2.81-.21,3.18l-1.1,2.13c-.44.87-2.27,2.53-5,.9s-1.62-2.86-5.33-4.76l-5.69-2.92a1.94,1.94,0,0,1-1.1-1.11,3.7,3.7,0,0,0-1.78,1.59c-1,1.94-.85,1.66-1.08,2.11a1.85,1.85,0,0,0-.15,1.23,3.121,3.121,0,0,1,0,.74l15.9,8.16a4.22,4.22,0,0,1,.37-1.61l.16-.78a2.08,2.08,0,0,1,1.7.25l2.2,1.13a5.751,5.751,0,0,1,1,1.14Z" fill="#ea5a50" fill-rule="evenodd"/>
    <path id="Path_33" data-name="Path 33" d="M198.11,290.27s.65,1,.75,1.14a17.242,17.242,0,0,1-1.24,2.69,3.63,3.63,0,0,1-1.71,1,1.7,1.7,0,0,1-1-.16l-13.27-6.82-1.69-.87a.81.81,0,0,1-.37-1.09l1-2c.18-.35.95-.42.95-.42a3.17,3.17,0,0,0,2.68,1.19c1.59-.23,3-.28,4.3,1S193.81,292.24,198.11,290.27Z" fill="#fff" fill-rule="evenodd"/>
    <path id="Path_34" data-name="Path 34" d="M198.11,290.27s.65,1,.75,1.14a17.242,17.242,0,0,1-1.24,2.69,3.63,3.63,0,0,1-1.71,1,1.7,1.7,0,0,1-1-.16l-9.8-5-1.61-1.58,9.3,4.78c1.22.62,2.08.53,2.3.11s.55-1.06.92-1.79a.81.81,0,0,0-.06-.67,4.91,4.91,0,0,0,2.15-.52Z" fill="#f2dddc" fill-rule="evenodd"/>
    <path id="Path_35" data-name="Path 35" d="M188.67,289.93a17.12,17.12,0,0,0,2.85,3.23l-9.86-5.06-1.69-.87a.81.81,0,0,1-.37-1.09l.17-.33a3,3,0,0,0,2.68,1.19C184,286.68,186.57,287,188.67,289.93Z" fill="#00000f" fill-rule="evenodd"/>
    <path id="Path_36" data-name="Path 36" d="M190.5,277.92a.26.26,0,0,1,.11-.43.58.58,0,0,1,.61.09l2.08,2.15,3.54.73c.23.05.37.22.3.38a.46.46,0,0,1-.53.21l-2.55-.53,1.49,1.55c.14.14.09.33-.11.43a.56.56,0,0,1-.6-.09l-2.08-2.15-3.55-.73a.3.3,0,0,1-.3-.38.49.49,0,0,1,.54-.21l2.54.52-1.49-1.54Zm11.26-2.24-3.55-.73-2.08-2.16a.54.54,0,0,0-.6-.08c-.2.09-.25.28-.11.42l1.49,1.55-2.54-.52a.48.48,0,0,0-.54.2c-.06.16.07.33.3.38l3.55.73,2.07,2.16a.56.56,0,0,0,.61.08c.19-.09.25-.28.11-.42L199,275.74l2.54.52a.48.48,0,0,0,.54-.2c.06-.16-.07-.33-.3-.38Zm-2.46,2.39-3.55-.73-2.08-2.16a.56.56,0,0,0-.6-.08c-.2.09-.25.28-.11.42l1.49,1.55-2.54-.52a.48.48,0,0,0-.54.2c-.06.17.07.34.3.38l3.55.73L197.3,280a.54.54,0,0,0,.6.08c.2-.09.25-.28.11-.42l-1.49-1.55,2.54.53a.5.5,0,0,0,.54-.21c.06-.14-.07-.31-.3-.36Z" fill="#fff" fill-rule="evenodd"/>
    <path id="Path_37" data-name="Path 37" d="M294.73,80.4l-.05,3.88s.27,8.27.3,9.16.46,1.19,1.55,1.91c1.48,2.28-2.15,12.23-4.95,12.66s-15.8-.39-16.74-1.08c-.65-.48,5.74-9.19,5.32-10.61a3.53,3.53,0,0,0,1.49-.69c2.68-2.38,2.14-8.77.09-11C280.2,83,294.73,80.4,294.73,80.4Z" fill="#dc5748" fill-rule="evenodd"/>
    <path id="Path_38" data-name="Path 38" d="M271.67,110.69c2.31-1.36,3.69-.29,6.33,2.15s5.06,2.17,6.49,2.69,2.15,23.45-7,27.09c-3.37,1.35-5.54,0-6.95-2.68C268,135.07,265.65,114.23,271.67,110.69Z" fill="#f6f5f4" fill-rule="evenodd"/>
    <path id="Path_39" data-name="Path 39" d="M314.61,172.48c-1.08,2.48-4.82,4.53-9.3,6.07-6.65-2.6-18,1.38-26.48,1-9.69-.46-13.65-2.68-13.65-2.68l-.63.45a2.73,2.73,0,0,1-.68-.68h0c-1.11-1.69-.56-4.21-.13-6.46.78-4,4.16-1.22,2.69-20.3s-6.52-51.63,13.94-54.05c0,0-.21.47-.52,1.33h.85s-1.83,5.81,2,7.7,8-.8,9.85-3a1.15,1.15,0,0,1,.92-.47c1.27-1.64,2.67-3.3,4.23-5,4.35.67,11.25,3.86,11.25,3.86,3.49,1.53,7.26,4.74,8,8.22,1,4.94-4,21.71-7.41,32.51C303.79,159.07,317.78,165.26,314.61,172.48Z" fill="#cfc9d0" fill-rule="evenodd"/>
    <path id="Path_40" data-name="Path 40" d="M282.19,111s-9.36,35.64-10.75,42.74a5.44,5.44,0,0,0,.75,3.28c1,1.79,4.23,7.74,4.74,8.43s.88.18,1.52-.41,4.8-4.94,5.49-5.77a3.55,3.55,0,0,0,.68-2.67c-.21-9.91-1-19-.53-29.69.28-5.79.7-11.32,1.25-15.06l2.93-2.88L287,106.42a6.81,6.81,0,0,0-3.57-.78,3.13,3.13,0,0,0-2.58,1.59Z" fill="#9e9ba5" fill-rule="evenodd"/>
    <path id="Path_41" data-name="Path 41" d="M270,178.42a19.209,19.209,0,0,1-4.81-1.57l-.63.45a2.73,2.73,0,0,1-.68-.68h0c-1.11-1.69-.56-4.21-.13-6.46.78-4,4.16-1.22,2.69-20.3-1.31-17.06-5.49-44.89,8.28-52.32,3,2.1,4.91,5.6,4.87,11.07l-.23,1.24a12.905,12.905,0,0,0-1,1.23c-.1.2-2.29,25.54-2.29,25.54Z" fill="#9e9ba5" fill-rule="evenodd"/>
    <path id="Path_42" data-name="Path 42" d="M281.36,111s-9.36,35.64-10.75,42.74a5.41,5.41,0,0,0,.76,3.28c1,1.79,4.22,7.74,4.73,8.43s.88.18,1.52-.41,4.8-4.94,5.49-5.77a3.55,3.55,0,0,0,.68-2.67c-.21-9.91-1-19-.53-29.69.28-5.79.7-11.32,1.26-15.06l-.79-3.12S281.41,109.85,281.36,111Z" fill="#ea574d" fill-rule="evenodd"/>
    <path id="Path_43" data-name="Path 43" d="M277.62,165.05c.65-.6,4.8-4.94,5.49-5.77a3.55,3.55,0,0,0,.68-2.67c-.21-9.91-1-19-.53-29.69.28-5.79.7-11.32,1.26-15.06l-.57-2.25-1.24.62-.4.63a4,4,0,0,1,.8,1c.27.57-1.6,19.42-2,23.86s-1,21.57-.9,22.68S277.62,165.05,277.62,165.05Z" fill="#d84743" fill-rule="evenodd"/>
    <path id="Path_44" data-name="Path 44" d="M276.7,129c-2.57,10-5.37,21.16-6.09,24.8a5.41,5.41,0,0,0,.76,3.28c.29.54.79,1.44,1.35,2.46L276,136.62S276.33,133.25,276.7,129Z" fill="#d84743" fill-rule="evenodd"/>
    <path id="Path_45" data-name="Path 45" d="M280,107.23l1.34,3.78a3,3,0,0,1,3.16.85l2.92-2.88-1.27-2.56a6.77,6.77,0,0,0-3.57-.78,3.13,3.13,0,0,0-2.58,1.59Z" fill="#ea574d" fill-rule="evenodd"/>
    <path id="Path_46" data-name="Path 46" d="M283.12,111a2.77,2.77,0,0,1,1.4.89l2.92-2.88-1.27-2.56a6.77,6.77,0,0,0-3.57-.78,2.789,2.789,0,0,0-.43.06l-.08.17a22.5,22.5,0,0,1,2,1.51c.45.44-1,3.59-1,3.59Z" fill="#d84743" fill-rule="evenodd"/>
    <path id="Path_47" data-name="Path 47" d="M298.09,95.43a8.359,8.359,0,0,1,1.62,1.26,2,2,0,0,1,0,1.67c-.39,1-10.08,13.15-10.08,13.15s-.33.43-.76-.05-4.18-6-4.18-6l12.14-10.37C297.19,94.69,297.75,95.21,298.09,95.43Z" fill="#fff" fill-rule="evenodd"/>
    <path id="Path_48" data-name="Path 48" d="M281.81,95.47h0a3.87,3.87,0,0,0-3.11.64c-1.73,1.65-.28,11.75.23,13.47h0a.76.76,0,0,0,1,.15,47.794,47.794,0,0,0,3.5-4.6C282.91,104.3,279.5,100,281.81,95.47Z" fill="#fff" fill-rule="evenodd"/>
    <path id="Path_49" data-name="Path 49" d="M298.94,96s-13.71,29.11-15.23,42.81,9.78,42.23,10.51,43.8,15,8.31,21.61,8.35c0,0,1.06,0,1.31-.33s1.25-1.43,1.59-1.87a2.55,2.55,0,0,0,.32-2.32c-.3-1.11-6.93-35.78-7.76-40.3s5.25-28.41,6.17-32.83S319.67,100.78,298.94,96Z" fill="#141a33" fill-rule="evenodd"/>
    <path id="Path_50" data-name="Path 50" d="M295.63,103.37c-4.16,9.55-10.88,26.09-11.92,35.45-.09.81-.13,1.67-.14,2.58a25.46,25.46,0,0,1,5.89-9.1c2.51-2.53,6.19-5.85,8.35-7.65,3.32-2.77,7.47-5.44,6.91-8.48S302.14,104,302.14,104Z" fill="#3f4154" fill-rule="evenodd"/>
    <path id="Path_51" data-name="Path 51" d="M292.77,209h9.29l15.33-28.51,18.24.75L317.7,212.76a2.61,2.61,0,0,1-2.37,1.5H292.77Z" fill="#d84743" fill-rule="evenodd"/>
    <path id="Path_52" data-name="Path 52" d="M291.45,209h7.27l17.09-30.21a2.59,2.59,0,0,1,2.27-1.32h15.21a2.62,2.62,0,1,1,0,5.23h-13.7l-17,30a2.6,2.6,0,0,1-2.37,1.5h-8.78Z" fill="#ec6957" fill-rule="evenodd"/>
    <path id="Path_53" data-name="Path 53" d="M278.66,96.1s-2.74,35.61-3.48,39.86-6.87,37.91-7.4,40.44-7.58,3.2-7.58,3.2,4-33.32,4.06-34.24.14-25.68.14-28.72,3.52-14.16,4.1-15.36S273,97.2,278.66,96.1Z" fill="#141a33" fill-rule="evenodd"/>
    <path id="Path_54" data-name="Path 54" d="M277.91,105.64c-.87,10.87-2.24,27.5-2.73,30.32-.13.79-.46,2.63-.91,5.11,0,0-3.76-28.13-3.48-29.15S275.4,103,275.4,103Z" fill="#3f4154" fill-rule="evenodd"/>
    <path id="Path_55" data-name="Path 55" d="M278.66,96.1s-.45,5.81-1,13c-2-2.59-4.45-6-4.17-6.47.46-.73,3.72-6.2,3.73-6.22Q277.9,96.25,278.66,96.1Z" fill="#575a6d" fill-rule="evenodd"/>
    <path id="Path_56" data-name="Path 56" d="M303.26,97.14s2.11,9,2.15,9.71-10.21,6-14.64,8.28c4-10.25,8.17-19.12,8.17-19.12C300.5,96.37,301.94,96.75,303.26,97.14Z" fill="#575a6d" fill-rule="evenodd"/>
    <path id="Path_57" data-name="Path 57" d="M312.33,101.06a15.32,15.32,0,0,1,5.73,5.45c1.36,2.19,17,43.57,18,46.26s.52,9.22-2.59,13c-1.27,1.53-5,5.92-9,10.6-3.53,4.15-9.83,3.86-14.73,4.18,3.51-4.94,14.43-20.31,15-21.24.7-1.1,1.1-2.2.11-4.27s-14.37-23.64-14.37-23.64S304.92,107.93,312.33,101.06Z" fill="#141a33" fill-rule="evenodd"/>
    <path id="Path_58" data-name="Path 58" d="M336.43,158.2a15,15,0,0,1-2.93,7.55c-1.36,1.64-5.58,6.61-9.89,11.68-.6.7-4.33,4.29-7.68,4.29-.2,0-5.7-1.38-5.95-1.46l3.17-4.46c3.15-.15,10.6-.57,11-1s8.58-9.31,10.19-11.57a14.26,14.26,0,0,0,2.09-5.03Z" fill="#030822" fill-rule="evenodd"/>
    <path id="Path_59" data-name="Path 59" d="M312.66,134.79h0l-.57-10.52c4.59,7.55,11.39,20.29,12.81,23.31,2.69,5.69,2.92,8.88,2.92,9.75s-.71.37-1.15.63-3.27,3.37-3.27,3.37c.78-1.11,1.29-1.85,1.41-2,.7-1.1,1.1-2.2.11-4.27C324.18,153.47,316.48,141,312.66,134.79Z" fill="#030822" fill-rule="evenodd"/>
    <path id="Path_60" data-name="Path 60" d="M296.26,184.17l.13.07c.9.2,8.78,6.14,15.65,6.22l3.89-8.74a8.69,8.69,0,0,1,.21-10.13c-2-10.4-4.38-22.86-4.85-25.44-.44-2.36,1-10,2.63-17.38l-1.83-4.5s-3.85,16.59-4.3,17.85-6.82.09-7.61,0,5.49,2.35,6.64,2.91,3.23,21.44,3.14,23.19S297,183.54,296.26,184.17Z" fill="#030822" fill-rule="evenodd"/>
    <path id="Path_61" data-name="Path 61" d="M273.29,97.82a36.84,36.84,0,0,0-8.77,18,.25.25,0,0,1-.08.14,57.677,57.677,0,0,1,1.88-8,36.549,36.549,0,0,1,5.73-9.52A11.027,11.027,0,0,1,273.29,97.82Z" fill="#030822" fill-rule="evenodd"/>
    <path id="Path_62" data-name="Path 62" d="M312.51,127.27a.25.25,0,0,1-.25.26.26.26,0,0,1-.27-.25c0-.06-.4-18,3.88-23.54.11.11.22.22.32.34C312.12,109.35,312.51,127.21,312.51,127.27Z" fill="#030822" fill-rule="evenodd"/>
    <rect id="Rectangle_12" data-name="Rectangle 12" width="13.25" height="6.73" rx="3.365" transform="translate(303.2 174.4)" fill="#f08a71"/>
    <path id="Path_63" data-name="Path 63" d="M268.56,57.93a9.29,9.29,0,0,0-.92,3.61c0,1.73,3.68,2.44,4.93,2.44s35,1.25,35,1.25a1.27,1.27,0,0,0,1.05-1.2c0-1-5.79-13.63-5.79-13.63Z" fill="#2a0d09" fill-rule="evenodd"/>
    <path id="Path_64" data-name="Path 64" d="M270.22,67a5.38,5.38,0,1,1-5.37,5.37A5.38,5.38,0,0,1,270.22,67Z" fill="#e9695b" fill-rule="evenodd"/>
    <path id="Path_65" data-name="Path 65" d="M307,67a5.38,5.38,0,1,1-5.37,5.37A5.38,5.38,0,0,1,307,67Z" fill="#e9695b" fill-rule="evenodd"/>
    <path id="Path_66" data-name="Path 66" d="M287.4,39.85h0a18.45,18.45,0,0,1,18.4,18.4V75a18.45,18.45,0,0,1-18.4,18.4h0A18.45,18.45,0,0,1,269,75V58.25a18.46,18.46,0,0,1,18.4-18.4Z" fill="#f5ac83" fill-rule="evenodd"/>
    <path id="Path_67" data-name="Path 67" d="M294.91,41.47h0A18.47,18.47,0,0,1,305.8,58.25V75a18.45,18.45,0,0,1-18.4,18.4h0a18.335,18.335,0,0,1-6.6-1.229c18,.139,20-12.1,20-22.341,0-15.13-16.52-9.68-30-9.68-.61,0-1.19,0-1.76-.05V58.25a17.889,17.889,0,0,1,.64-4.77C276.89,48.9,287,43,291.7,42l3.05-.62h.11C294.76,41.47,294.75,41.49,294.91,41.47Z" fill="#ee9073" fill-rule="evenodd"/>
    <path id="Path_68" data-name="Path 68" d="M303.73,57.21v5.66c0,2.23.4,2.88,1.51,3.69,0,0-.68,2.15.56,2.65a1.94,1.94,0,0,1,1.77-1.91V52.69a7.46,7.46,0,0,1-4,3.26,5.59,5.59,0,0,1,.16,1.26Z" fill="#4f3a38" fill-rule="evenodd"/>
    <path id="Path_69" data-name="Path 69" d="M308.62,64a15.25,15.25,0,0,0-4.2-3.43h-.08l-.51-.28A10.79,10.79,0,0,1,299.48,56c-1.53,1.06-7.81.9-10.18.8h-.91c-10.52-.42-20.7,2.13-20.75,4.8-9.11-19.16,13.68-37.6,33.94-16.67C312.3,45.38,311.35,56.38,308.62,64Z" fill="#4f3a38" fill-rule="evenodd"/>
    <path id="Path_70" data-name="Path 70" d="M265.6,51.89a17.21,17.21,0,0,1,3-9c4.89,3,16.71,8.1,30-.79.64.53,1.27,1.11,1.9,1.72C296.25,48.38,285,57.17,265.6,51.89Z" fill="#6a514f" fill-rule="evenodd"/>
    <path id="Path_71" data-name="Path 71" d="M308.62,64a15.25,15.25,0,0,0-4.2-3.43h-.08l-.51-.28A10.79,10.79,0,0,1,299.48,56c-1.53,1.06-7.81.9-10.18.8h-.91c-1,0-2-.05-2.93,0,13.54-.52,20-5.33,22.94-8.85C311.55,51.76,310.52,58.7,308.62,64Z" fill="#2a0d09" fill-rule="evenodd"/>
    <path id="Path_72" data-name="Path 72" d="M292.63,74.93a2.49,2.49,0,1,0,1.784.672,2.49,2.49,0,0,0-1.784-.672Z" fill="#e9695b" fill-rule="evenodd"/>
    <path id="Path_73" data-name="Path 73" d="M273.07,75.56A2.5,2.5,0,1,0,275.64,78,2.5,2.5,0,0,0,273.07,75.56Z" fill="#e9695b" fill-rule="evenodd"/>
    <path id="Path_74" data-name="Path 74" d="M271.26,66.74a.573.573,0,0,1-.56-1s3.28-2,6.38-.29a.55.55,0,0,1,.23.76.56.56,0,0,1-.76.24C274,65.11,271.26,66.74,271.26,66.74Z" fill="#00000f" fill-rule="evenodd"/>
    <path id="Path_75" data-name="Path 75" d="M294.22,65.53a.56.56,0,0,0,.75-.29.57.57,0,0,0-.29-.74s-3.46-1.63-6.38.33a.56.56,0,0,0-.16.78.58.58,0,0,0,.79.16C291.32,64.17,294.21,65.53,294.22,65.53Z" fill="#00000f" fill-rule="evenodd"/>
    <rect id="Rectangle_13" data-name="Rectangle 13" width="3.16" height="5.22" rx="1.58" transform="translate(290.28 68.14)" fill="#00000f"/>
    <rect id="Rectangle_14" data-name="Rectangle 14" width="3.16" height="5.23" rx="1.58" transform="translate(272.65 69.1)" fill="#00000f"/>
    <path id="Path_76" data-name="Path 76" d="M286.57,79.27a4.34,4.34,0,1,1-8.66.52h0a.76.76,0,0,1,.71-.79l7.15-.44a.76.76,0,0,1,.79.71Z" fill="#00000f" fill-rule="evenodd"/>
    <path id="Path_77" data-name="Path 77" d="M285.16,82.74a4.31,4.31,0,0,1-2.66,1.12,4.37,4.37,0,0,1-2.33-.51,2.69,2.69,0,0,1,2.38-1.75A2.74,2.74,0,0,1,285.16,82.74Z" fill="#d84743" fill-rule="evenodd"/>
    <path id="Path_78" data-name="Path 78" d="M278.52,79l6.72-.41a1.52,1.52,0,0,1-.63,1.71c-.6.23-5.47.4-5.84,0A2.65,2.65,0,0,1,278.52,79Z" fill="#fff" fill-rule="evenodd"/>
    <path id="Path_79" data-name="Path 79" d="M178.62,190.81,188.96,321.1h-4.59L170.49,196.94H92.7L78.81,321.1H74.23L84.56,190.81Z" fill="#3f4154" fill-rule="evenodd"/>
    <path id="Path_80" data-name="Path 80" d="M365.44,190.81,375.77,321.1h-4.58L357.3,196.94H279.51L265.63,321.1h-4.58l10.33-130.29Z" fill="#3f4154" fill-rule="evenodd"/>
    <path id="Path_81" data-name="Path 81" d="M328.26,183.72H81.48a4,4,0,0,0-4,3.95h0a4,4,0,0,0,4,4H328.26a4,4,0,0,0,4-4h0A4,4,0,0,0,328.26,183.72Z" fill="#f1a272" fill-rule="evenodd"/>
    <path id="Path_82" data-name="Path 82" d="M370.61,183.72H266.2a4,4,0,0,0-3.95,3.95h0a4,4,0,0,0,3.95,4H370.61a4,4,0,0,0,4-4h0A4,4,0,0,0,370.61,183.72Z" fill="#c37744" fill-rule="evenodd"/>
    <path id="Path_83" data-name="Path 83" d="M6.77,322.33H20.23a4.27,4.27,0,0,1,4.26,4.26h0a4.28,4.28,0,0,1-4.26,4.26h-6.4a3.39,3.39,0,0,0-3.38,3.38h0a3.4,3.4,0,0,0,3.38,3.39H422.62a3.4,3.4,0,0,0,3.38-3.39h0a3.39,3.39,0,0,0-3.38-3.38h-6.1a4.28,4.28,0,0,1-4.27-4.26h0a4.27,4.27,0,0,1,4.27-4.26h26.71a6.79,6.79,0,0,0,6.77-6.77h0a6.79,6.79,0,0,0-6.77-6.77H6.77A6.79,6.79,0,0,0,0,315.56H0a6.79,6.79,0,0,0,6.77,6.77ZM4.69,337.62a3.38,3.38,0,1,1,2.394-.994,3.39,3.39,0,0,1-2.394.994Z" fill="#00000f" fill-rule="evenodd"/>
    <path id="Path_84" data-name="Path 84" d="M216.21,24.18h35.53a4.7,4.7,0,0,1,4.69,4.69V62a.51.51,0,0,1-.32.48.52.52,0,0,1-.57-.11l-8-8H216.21a4.7,4.7,0,0,1-4.69-4.69V28.87a4.7,4.7,0,0,1,4.69-4.69Z" fill="#e9695b" fill-rule="evenodd"/>
    <path id="Path_85" data-name="Path 85" d="M224.12,40.88a2.9,2.9,0,1,0-2.9-2.9A2.9,2.9,0,0,0,224.12,40.88Z" fill="#fff" fill-rule="evenodd"/>
    <path id="Path_86" data-name="Path 86" d="M234,40.88a2.9,2.9,0,1,0-2.9-2.9A2.9,2.9,0,0,0,234,40.88Z" fill="#fff" fill-rule="evenodd"/>
    <path id="Path_87" data-name="Path 87" d="M243.83,40.88a2.9,2.9,0,1,0-2.9-2.9A2.9,2.9,0,0,0,243.83,40.88Z" fill="#fff" fill-rule="evenodd"/>
    <path id="Path_88" data-name="Path 88" d="M120.49,139.26c6.05-2.61,7,4.15,4.32,9.48-1.82,3.61-8.37,12.85-12.78,20.7h-5C108.71,157.56,114.24,142,120.49,139.26Z" fill="#da4848" fill-rule="evenodd"/>
    <path id="Path_89" data-name="Path 89" d="M108.79,169.44c4.29-14.4,14.18-28,14.22-28a.27.27,0,0,1,.37-.07.26.26,0,0,1,.06.37c0,.05-9.82,13.49-14.1,27.72Z" fill="#610419" fill-rule="evenodd"/>
    <path id="Path_90" data-name="Path 90" d="M107.71,117.91c-6.1-6-10.27,1.6-9.42,9.21.81,7.22,7.85,32,7,42.42h2.4C113.16,156.19,115.51,125.56,107.71,117.91Z" fill="#e9695b" fill-rule="evenodd"/>
    <path id="Path_91" data-name="Path 91" d="M106.82,169.54c5.07-21-3.07-50.17-3.1-50.27a.36.36,0,0,0-.42-.25.33.33,0,0,0-.24.41c0,.09,8.18,29.25,3.06,50.11Z" fill="#d84743" fill-rule="evenodd"/>
    <path id="Path_92" data-name="Path 92" d="M92.7,131.13c-6.4-3-7.62,4.13-4.91,9.94,2.25,4.82,11.85,19,15.67,28.15l3.17-.11C106.28,156.26,100.24,134.73,92.7,131.13Z" fill="#c8dee1" fill-rule="evenodd"/>
    <path id="Path_93" data-name="Path 93" d="M105.47,169.15c-2.9-17.29-15.49-35.76-15.54-35.83a.282.282,0,0,0-.47.31c.05.06,12.55,18.41,15.45,35.54Z" fill="#7a9297" fill-rule="evenodd"/>
    <rect id="Rectangle_15" data-name="Rectangle 15" width="20.85" height="6.69" rx="1.02" transform="translate(97.61 166.88)" fill="#2c3049"/>
    <path id="Path_94" data-name="Path 94" d="M114.21,170.65H101.86l-3.23,2.91,2.64,10.16H114.8l2.64-10.16Z" fill="#2c3049" fill-rule="evenodd"/>
    <path id="Path_95" data-name="Path 95" d="M98.63,173.56l.54,2.09h17.72l.55-2.09Z" fill="#141a33" fill-rule="evenodd"/>
    <path id="Path_96" data-name="Path 96" d="M169,176.16H143.68a3.78,3.78,0,1,0,0,7.56H169a3.79,3.79,0,0,0,3.78-3.78,3.74,3.74,0,0,0-1.11-2.67,3.78,3.78,0,0,0-2.67-1.11Z" fill="#3b3a3a" fill-rule="evenodd"/>
    <path id="Path_97" data-name="Path 97" d="M112.42,176.6h32.32a3.35,3.35,0,0,1,3.34,3.34h0a3.35,3.35,0,0,1-3.34,3.34H112.42Z" fill="#fff" fill-rule="evenodd"/>
    <path id="Path_98" data-name="Path 98" d="M112.42,176.16a.44.44,0,0,0,0,.88h32.32a2.9,2.9,0,0,1,0,5.8H112.42a.44.44,0,1,0,0,.88h32.32a3.78,3.78,0,1,0,0-7.56Z" fill="#242525" fill-rule="evenodd"/>
    <path id="Path_99" data-name="Path 99" d="M167.79,179.94a3.79,3.79,0,0,0-3.78-3.78h3.29a3.78,3.78,0,1,1,0,7.56H164a3.79,3.79,0,0,0,3.78-3.78Z" fill="#242525" fill-rule="evenodd"/>
    <path id="Path_100" data-name="Path 100" d="M163,179.94a3.79,3.79,0,0,0-3.78-3.78h3.29a3.78,3.78,0,1,1,0,7.56h-3.29A3.79,3.79,0,0,0,163,179.94Z" fill="#242525" fill-rule="evenodd"/>
    <path id="Path_101" data-name="Path 101" d="M119.07,169.54H141.2a3.31,3.31,0,0,1,0,6.62H119.07a3.31,3.31,0,0,1,0-6.62Z" fill="#c8dee1" fill-rule="evenodd"/>
    <path id="Path_102" data-name="Path 102" d="M168.57,169.93h-28.3a2.93,2.93,0,0,0-2.92,2.92h0a2.93,2.93,0,0,0,2.92,2.93h28.3Z" fill="#fff" fill-rule="evenodd"/>
    <path id="Path_103" data-name="Path 103" d="M168.57,169.54a.39.39,0,0,1,0,.78h-28.3a2.535,2.535,0,0,0,0,5.07h28.3a.39.39,0,0,1,0,.77h-28.3a3.31,3.31,0,1,1,0-6.62Z" fill="#7a9297" fill-rule="evenodd"/>
    <path id="Path_104" data-name="Path 104" d="M120.08,172.85a3.35,3.35,0,0,1,3.31-3.31h-2.87a3.31,3.31,0,0,0,0,6.62h2.87a3.33,3.33,0,0,1-3.31-3.31Z" fill="#7a9297" fill-rule="evenodd"/>
    <path id="Path_105" data-name="Path 105" d="M124.25,172.85a3.35,3.35,0,0,1,3.31-3.31h-2.88a3.31,3.31,0,1,0,0,6.62h2.88a3.26,3.26,0,0,1-2.33-1A3.31,3.31,0,0,1,124.25,172.85Z" fill="#7a9297" fill-rule="evenodd"/>
    <path id="Path_106" data-name="Path 106" d="M173.11,183.72h79.31a2.53,2.53,0,0,0,2.52-2.52h0a2.52,2.52,0,0,0-2.52-2.52H173.11a2.52,2.52,0,0,0-2.52,2.52h0a2.53,2.53,0,0,0,2.52,2.52Z" fill="#141a33" fill-rule="evenodd"/>
    <path id="Path_107" data-name="Path 107" d="M173.11,183.72h79.31a2.54,2.54,0,0,0,2.14-1.19,2.54,2.54,0,0,0-2.14-1.19H173.11a2.54,2.54,0,0,0-2.14,1.19,2.54,2.54,0,0,0,2.14,1.19Z" fill="#030822" fill-rule="evenodd"/>
    <path id="Path_108" data-name="Path 108" d="M171.15,178.68h63.44a2.87,2.87,0,0,0,2.89-3.3l-5.06-41.09a3.84,3.84,0,0,0-3.7-3.29H165.28a2.86,2.86,0,0,0-2.89,3.29l5.06,41.09A3.85,3.85,0,0,0,171.15,178.68Z" fill="#030822" fill-rule="evenodd"/>
    <path id="Path_109" data-name="Path 109" d="M171.15,178.68h61.57a2.87,2.87,0,0,0,2.89-3.3l-5.06-41.09a3.84,3.84,0,0,0-3.7-3.29H165.28a2.86,2.86,0,0,0-2.89,3.29l5.06,41.09A3.85,3.85,0,0,0,171.15,178.68Z" fill="#2c3049" fill-rule="evenodd"/>
    <path id="Path_110" data-name="Path 110" d="M174.5,178.68h6.34l50-42-.3-2.41a3.71,3.71,0,0,0-.87-1.93Zm48-47.68-54.55,45.79a3.54,3.54,0,0,1-.49-1.41l-.79-6.39,45.27-38Z" fill="#3a3f57" fill-rule="evenodd"/>
    <path id="Path_111" data-name="Path 111" d="M238,183.72h14.41a2.53,2.53,0,0,0,2.52-2.52h0a2.52,2.52,0,0,0-2.52-2.52H238a2.52,2.52,0,0,0-2.52,2.52h0a2.53,2.53,0,0,0,2.52,2.52Z" fill="#2c3049" fill-rule="evenodd"/>
    <rect id="Rectangle_16" data-name="Rectangle 16" width="68.52" height="2.52" rx="1.26" transform="translate(170.59 177.42)" fill="#00000f"/>
    <path id="Path_112" data-name="Path 112" d="M197.7,148.5a7.19,7.19,0,0,1,7,6.34,5.61,5.61,0,0,1-5.68,6.33,7.18,7.18,0,0,1-7-6.33,5.61,5.61,0,0,1,5.68-6.34Z" fill="#242942" fill-rule="evenodd"/>
    <path id="Path_113" data-name="Path 113" d="M355.58,176.16H330.3a3.78,3.78,0,1,0,0,7.56h25.28a3.78,3.78,0,0,0,0-7.56Z" fill="#3b3a3a" fill-rule="evenodd"/>
    <path id="Path_114" data-name="Path 114" d="M299.05,176.6h32.32a3.34,3.34,0,0,1,3.33,3.34h0a3.35,3.35,0,0,1-3.33,3.34H299.05Z" fill="#fff" fill-rule="evenodd"/>
    <path id="Path_115" data-name="Path 115" d="M299.05,176.16a.44.44,0,0,0,0,.88h32.32a2.9,2.9,0,0,1,0,5.8H299.05a.43.43,0,0,0-.44.44.44.44,0,0,0,.44.44h32.32a3.78,3.78,0,0,0,0-7.56Z" fill="#242525" fill-rule="evenodd"/>
    <path id="Path_116" data-name="Path 116" d="M354.41,179.94a3.79,3.79,0,0,0-3.77-3.78h3.28a3.78,3.78,0,1,1,0,7.56h-3.28a3.79,3.79,0,0,0,3.77-3.78Z" fill="#242525" fill-rule="evenodd"/>
    <path id="Path_117" data-name="Path 117" d="M349.65,179.94a3.74,3.74,0,0,0-1.11-2.67,3.78,3.78,0,0,0-2.67-1.11h3.29a3.78,3.78,0,1,1,0,7.56h-3.29a3.79,3.79,0,0,0,3.78-3.78Z" fill="#242525" fill-rule="evenodd"/>
    <path id="Path_118" data-name="Path 118" d="M305.69,169.54h22.13a3.31,3.31,0,1,1,0,6.62H305.69a3.31,3.31,0,0,1,0-6.62Z" fill="#c8dee1" fill-rule="evenodd"/>
    <path id="Path_119" data-name="Path 119" d="M355.19,169.93h-28.3a2.93,2.93,0,0,0-2.92,2.92h0a2.93,2.93,0,0,0,2.92,2.93h28.3Z" fill="#fff" fill-rule="evenodd"/>
    <path id="Path_120" data-name="Path 120" d="M355.19,169.54a.39.39,0,1,1,0,.78h-28.3a2.535,2.535,0,0,0,0,5.07h28.3a.39.39,0,1,1,0,.77h-28.3a3.31,3.31,0,0,1,0-6.62Z" fill="#7a9297" fill-rule="evenodd"/>
    <path id="Path_121" data-name="Path 121" d="M306.71,172.85a3.33,3.33,0,0,1,3.31-3.31h-2.88a3.31,3.31,0,1,0,0,6.62H310a3.31,3.31,0,0,1-3.31-3.31Z" fill="#7a9297" fill-rule="evenodd"/>
    <path id="Path_122" data-name="Path 122" d="M310.88,172.85a3.33,3.33,0,0,1,3.31-3.31h-2.88a3.31,3.31,0,0,0,0,6.62h2.88A3.31,3.31,0,0,1,310.88,172.85Z" fill="#7a9297" fill-rule="evenodd"/>
    <path id="Path_123" data-name="Path 123" d="M346.6,162.93H330.14a3.31,3.31,0,1,0,0,6.61H346.6a3.31,3.31,0,0,0,0-6.61Z" fill="#e9695b" fill-rule="evenodd"/>
    <path id="Path_124" data-name="Path 124" d="M311.31,163.31h19.76a2.93,2.93,0,0,1,2.92,2.93h0a2.93,2.93,0,0,1-2.92,2.92H311.31Z" fill="#fff" fill-rule="evenodd"/>
    <path id="Path_125" data-name="Path 125" d="M311.31,162.93a.39.39,0,1,0,0,.77h19.76a2.54,2.54,0,0,1,0,5.07H311.31a.4.4,0,0,0-.39.39.39.39,0,0,0,.39.38h19.76a3.31,3.31,0,0,0,0-6.61Z" fill="#f08a71" fill-rule="evenodd"/>
    <path id="Path_126" data-name="Path 126" d="M345.58,166.24a3.31,3.31,0,0,0-3.31-3.31h2.88a3.31,3.31,0,0,1,0,6.61h-2.88a3.31,3.31,0,0,0,3.31-3.3Z" fill="#f08a71" fill-rule="evenodd"/>
    <path id="Path_127" data-name="Path 127" d="M341.41,166.24a3.31,3.31,0,0,0-3.31-3.31H341a3.335,3.335,0,0,1,0,6.67h-2.9a3.31,3.31,0,0,0,3.31-3.3Z" fill="#f08a71" fill-rule="evenodd"/>
    <rect id="Rectangle_17" data-name="Rectangle 17" width="10.92" height="14.99" rx="1.58" transform="translate(230.48 292.08)" fill="#d84743"/>
    <path id="Path_128" data-name="Path 128" d="M244.06,310.62v-7c0-1.09-.89-1.88-.89-3.4v-4.73c0-.53-.82-1.24-1.19-1.42a7.52,7.52,0,0,0-4.31,1.31s-1,.41-1,2.64V304c0,1.26-1.07,1.56-1.91,1.56h-1c-.64,0-1.6-.16-1.6-1.88v-6.57a5,5,0,0,0-1.73-3c-.47-.32-1.7.52-2,.84a1.88,1.88,0,0,0-.47,1.45v8c0,.9-2,2.25-2,4.44v2.37a2.23,2.23,0,0,0,.34,1.17,3.169,3.169,0,0,1,.3.63h16.5a2.94,2.94,0,0,0,.96-2.39Z" fill="#ec6957" fill-rule="evenodd"/>
    <path id="Path_129" data-name="Path 129" d="M244.06,310.62v-7c0-1.09-.89-1.88-.89-3.4v-4.73c0-.53-.82-1.24-1.19-1.42a5.39,5.39,0,0,0-2.5.42h0a9.279,9.279,0,0,1,1.38,1.31c.14.31,0,3.1,0,4.61s1,2.52,1,2.93v2.4a3,3,0,0,1-3.29,3.1c-2.58-.17-2.2-1.8-5.56-1.8h-5.14a1.4,1.4,0,0,1-1.19-.48,4.23,4.23,0,0,0-.69,2.22v2.37a2.23,2.23,0,0,0,.34,1.17,3.169,3.169,0,0,1,.3.63h16.5a2.94,2.94,0,0,0,.93-2.33Z" fill="#ea5a50" fill-rule="evenodd"/>
    <path id="Path_130" data-name="Path 130" d="M244.06,310.62s1,.54,1.18.67a17.639,17.639,0,0,1,.13,3,3.62,3.62,0,0,1-1.08,1.65,1.64,1.64,0,0,1-.94.3H226.52a.81.81,0,0,1-.82-.8v-2.25c0-.39.64-.8.64-.8a3.16,3.16,0,0,0,2.93-.17c1.31-.93,2.55-1.63,4.31-1S241.12,314.34,244.06,310.62Z" fill="#fff" fill-rule="evenodd"/>
    <path id="Path_131" data-name="Path 131" d="M244.06,310.62s1,.54,1.18.67a17.639,17.639,0,0,1,.13,3,3.62,3.62,0,0,1-1.08,1.65,1.64,1.64,0,0,1-.94.3h-11l-2.16-.67h10.46c1.36,0,2.1-.47,2.1-.95v-2a.83.83,0,0,0-.36-.57A5.07,5.07,0,0,0,244.06,310.62Z" fill="#f2dddc" fill-rule="evenodd"/>
    <path id="Path_132" data-name="Path 132" d="M235.5,314.63a17.22,17.22,0,0,0,4,1.57h-13a.81.81,0,0,1-.82-.8V315a2.93,2.93,0,0,0,2.92-.17C229.84,313.87,232.29,313,235.5,314.63Z" fill="#00000f" fill-rule="evenodd"/>
    <path id="Path_133" data-name="Path 133" d="M231.06,296.6a.32.32,0,0,1-.23-.43.42.42,0,0,1,.5-.2l6.59,2a.32.32,0,0,1,.24.43.42.42,0,0,1-.5.2Z" fill="#fff" fill-rule="evenodd"/>
    <path id="Path_134" data-name="Path 134" d="M231.06,299.85a.32.32,0,0,1-.23-.43.42.42,0,0,1,.5-.2l6.59,2a.32.32,0,0,1,.24.43.42.42,0,0,1-.5.2Z" fill="#fff" fill-rule="evenodd"/>
    <path id="Path_135" data-name="Path 135" d="M231.06,303.1a.32.32,0,0,1-.23-.43.42.42,0,0,1,.5-.2l6.59,2a.32.32,0,0,1,.24.43.4.4,0,0,1-.5.2Z" fill="#fff" fill-rule="evenodd"/>
    <path id="Path_136" data-name="Path 136" d="M237.66,296a.42.42,0,0,1,.5.2.32.32,0,0,1-.24.43l-6.59,2a.42.42,0,0,1-.5-.2.32.32,0,0,1,.23-.43Z" fill="#fff" fill-rule="evenodd"/>
    <path id="Path_137" data-name="Path 137" d="M237.66,299.22a.42.42,0,0,1,.5.2.32.32,0,0,1-.24.43l-6.59,2a.42.42,0,0,1-.5-.2.32.32,0,0,1,.23-.43Z" fill="#fff" fill-rule="evenodd"/>
    <path id="Path_138" data-name="Path 138" d="M237.66,302.47a.42.42,0,0,1,.5.2.32.32,0,0,1-.24.43l-6.59,2a.4.4,0,0,1-.5-.2.32.32,0,0,1,.23-.43Z" fill="#fff" fill-rule="evenodd"/>
  </g>
</svg>
