<svg id="Stamp_Categories" data-name="Stamp Categories" xmlns="http://www.w3.org/2000/svg" width="247.329" height="365.54" viewBox="0 0 247.329 365.54">
  <g id="OBJECTS">
    <path id="Path_2473" data-name="Path 2473" d="M247.329,365.54H0V51.239L51.239,0H247.329Z" fill="#ede4d6"/>
    <path id="Path_2474" data-name="Path 2474" d="M188.571,37.679H17.817A3.915,3.915,0,0,1,14,33.69h0a3.89,3.89,0,0,1,3.915-3.89H188.571a3.89,3.89,0,0,1,3.915,3.89h0a3.915,3.915,0,0,1-3.915,3.989Z" transform="translate(20.471 43.574)" fill="#b2a89d"/>
    <path id="Path_2475" data-name="Path 2475" d="M188.571,49.431H17.816A3.915,3.915,0,0,1,14,45.54h0a3.915,3.915,0,0,1,3.915-3.89H188.571a3.915,3.915,0,0,1,3.915,3.89h0a3.915,3.915,0,0,1-3.915,3.89Z" transform="translate(20.471 60.901)" fill="#b2a89d"/>
    <path id="Path_2476" data-name="Path 2476" d="M188.571,61.281H17.816A3.915,3.915,0,0,1,14,57.39h0a3.915,3.915,0,0,1,3.915-3.89H188.571a3.915,3.915,0,0,1,3.915,3.89h0a3.915,3.915,0,0,1-3.915,3.89Z" transform="translate(20.471 78.228)" fill="#b2a89d"/>
    <rect id="Rectangle_1275" data-name="Rectangle 1275" width="178.56" height="7.781" rx="1.58" transform="translate(34.372 160.906)" fill="#b2a89d"/>
    <rect id="Rectangle_1276" data-name="Rectangle 1276" width="178.56" height="7.781" rx="1.58" transform="translate(34.372 190.083)" fill="#b2a89d"/>
    <path id="Path_2477" data-name="Path 2477" d="M188.571,96.831H17.816A3.915,3.915,0,0,1,14,92.94h0a3.915,3.915,0,0,1,3.915-3.89H188.571a3.915,3.915,0,0,1,3.915,3.89h0A3.915,3.915,0,0,1,188.571,96.831Z" transform="translate(20.471 130.21)" fill="#b2a89d"/>
    <path id="Path_2478" data-name="Path 2478" d="M188.571,108.681H17.816A3.915,3.915,0,0,1,14,104.79h0a3.915,3.915,0,0,1,3.915-3.89H188.571a3.915,3.915,0,0,1,3.915,3.89h0A3.915,3.915,0,0,1,188.571,108.681Z" transform="translate(20.471 147.537)" fill="#b2a89d"/>
    <path id="Path_2479" data-name="Path 2479" d="M99.291,120.531H17.816A3.89,3.89,0,0,1,14,116.64h0a3.915,3.915,0,0,1,3.915-3.89H99.291a3.915,3.915,0,0,1,3.915,3.89h0a3.89,3.89,0,0,1-3.915,3.89Z" transform="translate(20.471 164.864)" fill="#b2a89d"/>
    <path id="Path_2480" data-name="Path 2480" d="M135.595,143.621H54.12a3.89,3.89,0,0,1-3.89-3.89h0a3.89,3.89,0,0,1,3.89-3.89h81.475a3.915,3.915,0,0,1,3.915,3.89h0A3.915,3.915,0,0,1,135.595,143.621Z" transform="translate(73.447 198.627)" fill="#b2a89d"/>
    <path id="Path_2481" data-name="Path 2481" d="M51.239,0,0,51.239H51.239Z" fill="#d1c4b2"/>
    <circle id="Ellipse_8" data-name="Ellipse 8" cx="25.484" cy="25.484" r="25.484" transform="translate(142.833 272.542)" fill="#eaa51b"/>
    <circle id="Ellipse_9" data-name="Ellipse 9" cx="16.521" cy="16.521" r="16.521" transform="translate(151.795 281.505)" fill="#ffc050"/>
  </g>
</svg>
