<svg xmlns="http://www.w3.org/2000/svg" width="291.29" height="360.339" viewBox="0 0 291.29 360.339">
  <g id="User_Management" data-name="User Management" transform="translate(0 0.009)">
    <g id="Layer_1" data-name="Layer 1" transform="translate(0 -0.009)">
      <path id="Path_2398" data-name="Path 2398" d="M27.48,21.34l14.18,8.913,5.852,48.931-1.305,35.967h-11.3Z" transform="translate(96.22 74.763)" fill="#111"/>
      <path id="Path_2399" data-name="Path 2399" d="M28.611,47.342A5.537,5.537,0,0,0,34.1,52.879h.765a5.537,5.537,0,0,0,5.627-5.537h0a5.537,5.537,0,0,0-5.627-5.582h-.855a5.492,5.492,0,0,0-5.4,5.582Z" transform="translate(100.176 146.262)" fill="#e2c7b5"/>
      <path id="Path_2400" data-name="Path 2400" d="M32.442,21.34l-14.18,8.913L12.41,79.184l1.305,35.967H26Z" transform="translate(43.453 74.763)" fill="#111"/>
      <path id="Path_2401" data-name="Path 2401" d="M24.974,47.272a5.537,5.537,0,0,1-5.492,5.537h-.855a5.537,5.537,0,0,1-5.537-5.537h0a5.537,5.537,0,0,1,5.537-5.492h.855a5.492,5.492,0,0,1,5.492,5.492Z" transform="translate(45.834 146.333)" fill="#e2c7b5"/>
      <path id="Path_2402" data-name="Path 2402" d="M61.02,36.229C59.129,49.1,51.341,59.862,39.458,59.862S19.7,49.1,17.9,36.229C15.285,17.773,20.776,8.68,39.413,8.68,58.9,8.68,63.54,19.979,61.02,36.229Z" transform="translate(60.52 30.434)" fill="#e2c7b5"/>
      <path id="Path_2403" data-name="Path 2403" d="M47.155,7.969a37.722,37.722,0,0,0-21.022,2.566,15.98,15.98,0,0,0-9,17.421,54.018,54.018,0,0,0,2.3,12.514c.585.63,7.652-3.421,10.8-4.1,8.643-1.891,31.87-7.743,24.938-22.507a10.894,10.894,0,0,0-8.013-5.9Z" transform="translate(59.035 26.193)" fill="#441707"/>
      <path id="Path_2404" data-name="Path 2404" d="M36.669,21.206a28.179,28.179,0,0,1-1.305,12.019C31.4,39.212,24.605,21.972,24.785,17.965a10.849,10.849,0,0,1,2.341-7.607,5.537,5.537,0,0,1,7.923,0,20.527,20.527,0,0,1,1.621,10.849Z" transform="translate(86.671 30.467)" fill="#441707"/>
      <path id="Path_2405" data-name="Path 2405" d="M83.773,110.549V42.172A21.472,21.472,0,0,0,62.3,20.7H35.922A21.472,21.472,0,0,0,14.45,42.172v68.377Z" transform="translate(50.596 72.522)" fill="#191919"/>
      <path id="Path_2406" data-name="Path 2406" d="M19.29,20.7,32.074,64.409,45.038,20.7Z" transform="translate(67.543 72.522)" fill="#fff"/>
      <path id="Path_2407" data-name="Path 2407" d="M25.816,22.46l-.9.135-.9-.135L21.36,37.495l3.556,17.736,3.556-17.736Z" transform="translate(74.791 78.684)"/>
      <path id="Path_2408" data-name="Path 2408" d="M27.272,25.922a2.881,2.881,0,0,1-2.881,2.836h0a2.881,2.881,0,0,1-2.881-2.836v-2.34A2.881,2.881,0,0,1,24.391,20.7h0a2.881,2.881,0,0,1,2.881,2.881Z" transform="translate(75.317 72.522)"/>
      <path id="Path_2409" data-name="Path 2409" d="M15.15,40.66l9.093,116.948H41.889L47.606,40.66Z" transform="translate(53.047 142.411)" fill="#191919"/>
      <path id="Path_2410" data-name="Path 2410" d="M54.606,40.66,45.558,157.608H27.912L22.15,40.66Z" transform="translate(77.557 142.411)" fill="#191919"/>
      <path id="Path_2411" data-name="Path 2411" d="M23.613,66.64l-8.283,19.4,22.642-11.7,2.521-.18V66.64Z" transform="translate(53.677 233.379)"/>
      <path id="Path_2412" data-name="Path 2412" d="M40.46,66.64l8.283,19.4L26.1,74.337l-2.521-.18V66.64Z" transform="translate(82.565 233.379)"/>
      <path id="Path_2413" data-name="Path 2413" d="M53.422,20.21l-14.18,8.868L33.39,78.009l1.35,36.012h11.3Z" transform="translate(116.914 70.806)" fill="#111"/>
      <path id="Path_2414" data-name="Path 2414" d="M45.964,46.157a5.537,5.537,0,0,1-5.537,5.492h-.855a5.492,5.492,0,0,1-5.492-5.492h0a5.492,5.492,0,0,1,5.492-5.537h.855a5.537,5.537,0,0,1,5.537,5.537Z" transform="translate(119.33 142.271)" fill="#e2c7b5"/>
      <path id="Path_2415" data-name="Path 2415" d="M48.47,20.21l14.18,8.868L68.5,78.009,67.2,114.021H54.907Z" transform="translate(169.716 70.806)" fill="#111"/>
      <path id="Path_2416" data-name="Path 2416" d="M49.625,46.157a5.537,5.537,0,0,0,5.537,5.492h.81a5.537,5.537,0,0,0,5.537-5.492h0a5.537,5.537,0,0,0-5.537-5.537h-.855a5.537,5.537,0,0,0-5.537,5.537Z" transform="translate(173.603 142.271)" fill="#e2c7b5"/>
      <path id="Path_2417" data-name="Path 2417" d="M38.747,35.089c1.891,12.919,9.633,23.633,21.562,23.633S80.026,48.008,81.871,35.089C84.482,16.633,78.945,7.54,60.309,7.54,41,7.54,36.361,18.839,38.747,35.089Z" transform="translate(133.659 26.442)" fill="#e2c7b5"/>
      <path id="Path_2418" data-name="Path 2418" d="M48.973,6.846A37.452,37.452,0,0,1,70,9.367a15.98,15.98,0,0,1,9,17.376,54.017,54.017,0,0,1-2.3,12.514c-.585.63-7.7-3.376-10.8-4.051C57.256,33.315,33.983,27.463,40.961,12.7a10.939,10.939,0,0,1,8.013-5.852Z" transform="translate(138.918 22.185)" fill="#280b02"/>
      <path id="Path_2419" data-name="Path 2419" d="M38.1,20.044A27.009,27.009,0,0,0,39.4,32.063c3.916,6.032,10.758-11.254,10.578-15.26A10.623,10.623,0,0,0,47.413,9.24a5.447,5.447,0,0,0-7.878,0,19.761,19.761,0,0,0-1.44,10.8Z" transform="translate(132.645 26.498)" fill="#280b02"/>
      <path id="Path_2420" data-name="Path 2420" d="M35.47,109.374V41.042A21.472,21.472,0,0,1,56.942,19.57H83.366a21.472,21.472,0,0,1,21.472,21.472v68.332Z" transform="translate(124.197 68.565)" fill="#191919"/>
      <path id="Path_2421" data-name="Path 2421" d="M66.058,19.57,53.274,63.234,40.31,19.57Z" transform="translate(141.144 68.565)" fill="#fff"/>
      <path id="Path_2422" data-name="Path 2422" d="M45,21.32l.9.18.945-.18,2.611,15.035L45.9,54.091,42.39,36.355Z" transform="translate(148.427 74.693)"/>
      <path id="Path_2423" data-name="Path 2423" d="M42.54,24.747a2.881,2.881,0,0,0,2.836,2.881h0a2.881,2.881,0,0,0,2.881-2.881V22.406a2.836,2.836,0,0,0-2.881-2.836h0a2.836,2.836,0,0,0-2.836,2.836Z" transform="translate(148.952 68.565)"/>
      <path id="Path_2424" data-name="Path 2424" d="M75.461,39.52,66.368,156.513H48.722L42.96,39.52Z" transform="translate(150.423 138.419)" fill="#191919"/>
      <path id="Path_2425" data-name="Path 2425" d="M35.96,39.52l9.093,116.993H62.7L68.416,39.52Z" transform="translate(125.913 138.419)" fill="#191919"/>
      <path id="Path_2426" data-name="Path 2426" d="M61.291,65.51l8.238,19.356-22.642-11.7-2.476-.18V65.51Z" transform="translate(155.5 229.422)"/>
      <path id="Path_2427" data-name="Path 2427" d="M44.4,65.51,36.16,84.866,58.8,73.162l2.521-.18V65.51Z" transform="translate(126.613 229.422)"/>
      <path id="Path_2428" data-name="Path 2428" d="M17.52,19.26,34,29.568l6.752,56.854L39.217,128.24h-13.1Z" transform="translate(61.346 67.48)" fill="#111"/>
      <path id="Path_2429" data-name="Path 2429" d="M18.82,49.3a6.392,6.392,0,0,0,6.392,6.392h1.035A6.392,6.392,0,0,0,32.639,49.3h0A6.392,6.392,0,0,0,26.247,43H25.212a6.392,6.392,0,0,0-6.392,6.392Z" transform="translate(65.898 150.604)" fill="#e2c7b5"/>
      <path id="Path_2430" data-name="Path 2430" d="M23.273,19.26,6.8,29.568,0,86.422,1.53,128.24H15.845Z" transform="translate(0 67.48)" fill="#111"/>
      <path id="Path_2431" data-name="Path 2431" d="M14.609,49.3a6.347,6.347,0,0,1-6.392,6.392h-.99A6.392,6.392,0,0,1,.79,49.3h0A6.392,6.392,0,0,1,7.227,43h.99a6.347,6.347,0,0,1,6.392,6.3Z" transform="translate(2.766 150.604)" fill="#e2c7b5"/>
      <path id="Path_2432" data-name="Path 2432" d="M56.564,36.555c-2.206,14.99-11.209,27.459-25.073,27.459S8.534,51.59,6.418,36.555C3.357,15.128,9.794,4.55,31.446,4.55,53.909,4.55,59.265,17.649,56.564,36.555Z" transform="translate(19.96 15.973)" fill="#e2c7b5"/>
      <path id="Path_2433" data-name="Path 2433" d="M40.31,3.719A43.754,43.754,0,0,0,15.868,6.735,18.591,18.591,0,0,0,5.514,26.946a62.616,62.616,0,0,0,2.7,14.54c.63.72,9-3.961,12.514-4.727,10.038-2.206,37.047-9,28.989-26.154A12.739,12.739,0,0,0,40.31,3.719Z" transform="translate(18.209 11.043)" fill="#280b02"/>
      <path id="Path_2434" data-name="Path 2434" d="M28.2,19c0,3.511.45,10.984-1.531,13.955-4.591,6.977-12.514-13.009-12.289-17.511a12.379,12.379,0,0,1,2.926-9,6.392,6.392,0,0,1,9,0A23.453,23.453,0,0,1,28.2,19Z" transform="translate(50.217 16.107)" fill="#280b02"/>
      <path id="Path_2435" data-name="Path 2435" d="M82.946,122.864V43.458A24.938,24.938,0,0,0,58.008,18.52h-30.7A24.938,24.938,0,0,0,2.37,43.458v79.406Z" transform="translate(8.298 64.889)" fill="#191919"/>
      <path id="Path_2436" data-name="Path 2436" d="M8,18.52,22.855,69.3,37.89,18.52Z" transform="translate(28.012 64.889)" fill="#fff"/>
      <path id="Path_2437" data-name="Path 2437" d="M15.542,20.56l-1.035.18-1.035-.18L10.41,38.026l4.1,20.572,4.141-20.572Z" transform="translate(36.45 72.032)"/>
      <path id="Path_2438" data-name="Path 2438" d="M17.242,24.552a3.331,3.331,0,0,1-3.331,3.331h0a3.331,3.331,0,0,1-3.331-3.331v-2.7a3.331,3.331,0,0,1,3.331-3.331h0a3.331,3.331,0,0,1,3.331,3.331Z" transform="translate(37.046 64.889)"/>
      <path id="Path_2439" data-name="Path 2439" d="M3.19,41.7,13.723,177.6H34.205L40.912,41.7Z" transform="translate(11.17 146.053)" fill="#191919"/>
      <path id="Path_2440" data-name="Path 2440" d="M49.042,41.7,38.509,177.6H17.982L11.32,41.7Z" transform="translate(39.637 146.053)" fill="#191919"/>
      <path id="Path_2441" data-name="Path 2441" d="M12.988,71.89,3.4,94.4,29.734,80.8l2.881-.225V71.89Z" transform="translate(11.905 251.762)"/>
      <path id="Path_2442" data-name="Path 2442" d="M32.606,71.89,42.195,94.4,15.906,80.8l-2.926-.225V71.89Z" transform="translate(45.449 251.762)"/>
      <path id="Path_2443" data-name="Path 2443" d="M65.288,18.3,48.452,28.833,41.52,86.947,43.1,129.711H56.51Z" transform="translate(145.381 64.118)" fill="#111"/>
      <path id="Path_2444" data-name="Path 2444" d="M56.465,49.112a6.527,6.527,0,0,1-6.617,6.527H48.812a6.527,6.527,0,0,1-6.482-6.527h0a6.527,6.527,0,0,1,6.527-6.572h.99a6.572,6.572,0,0,1,6.617,6.572Z" transform="translate(148.217 148.994)" fill="#e2c7b5"/>
      <path id="Path_2445" data-name="Path 2445" d="M59.43,18.3,76.265,28.833,83.2,86.947l-1.576,42.764H67.037Z" transform="translate(208.092 64.118)" fill="#111"/>
      <path id="Path_2446" data-name="Path 2446" d="M60.76,49.112a6.527,6.527,0,0,0,6.572,6.527h.99a6.527,6.527,0,0,0,6.572-6.527h0a6.572,6.572,0,0,0-6.572-6.572h-.99a6.572,6.572,0,0,0-6.572,6.572Z" transform="translate(212.749 148.994)" fill="#e2c7b5"/>
      <path id="Path_2447" data-name="Path 2447" d="M47.871,35.941C50.121,51.291,59.349,64.03,73.484,64.03S96.937,51.291,99.1,35.941C102.2,14.019,95.856,3.26,73.349,3.26,50.572,3.215,45.035,16.629,47.871,35.941Z" transform="translate(165.229 11.456)" fill="#e2c7b5"/>
      <path id="Path_2448" data-name="Path 2448" d="M60.031,2.528A44.474,44.474,0,0,1,85.1,5.364,19,19,0,0,1,95.682,26.026a64.1,64.1,0,0,1-2.746,14.855c-.675.765-9-4.006-12.829-4.817-10.263-2.251-37.857-9-29.62-26.739a12.964,12.964,0,0,1,9.543-6.8Z" transform="translate(171.48 6.516)" fill="#916826"/>
      <path id="Path_2449" data-name="Path 2449" d="M46.933,18.037c0,3.556-.45,11.209,1.575,14.27,4.5,7.112,12.784-13.5,12.559-18.006a13.054,13.054,0,0,0-2.791-9,6.527,6.527,0,0,0-9.408,0C46.393,8.628,47.023,14.165,46.933,18.037Z" transform="translate(164.186 11.58)" fill="#916826"/>
      <path id="Path_2450" data-name="Path 2450" d="M44,124.085V43.058A25.433,25.433,0,0,1,69.478,17.58h31.51a25.478,25.478,0,0,1,25.523,25.478v81.026Z" transform="translate(154.064 61.597)" fill="#191919"/>
      <path id="Path_2451" data-name="Path 2451" d="M80.3,17.54l-15.17,51.9-15.4-51.9Z" transform="translate(174.163 61.457)" fill="#fff"/>
      <path id="Path_2452" data-name="Path 2452" d="M55.351,19.62l1.035.18,1.08-.18,3.151,17.871L56.386,58.558,52.2,37.491Z" transform="translate(182.777 68.74)"/>
      <path id="Path_2453" data-name="Path 2453" d="M52.38,23.707a3.421,3.421,0,0,0,3.376,3.376h0a3.421,3.421,0,0,0,3.421-3.376V20.916a3.421,3.421,0,0,0-3.421-3.376h0a3.421,3.421,0,0,0-3.376,3.376Z" transform="translate(183.407 61.457)"/>
      <path id="Path_2454" data-name="Path 2454" d="M91.458,41.24l-10.8,138.915H59.722L52.88,41.24Z" transform="translate(185.158 144.442)" fill="#191919"/>
      <path id="Path_2455" data-name="Path 2455" d="M44.57,41.24l10.8,138.915H76.305L83.1,41.24Z" transform="translate(156.06 144.442)" fill="#191919"/>
      <path id="Path_2456" data-name="Path 2456" d="M74.632,72.1l9.813,23.048L57.571,81.238,54.6,81.013V72.1Z" transform="translate(191.18 252.497)"/>
      <path id="Path_2457" data-name="Path 2457" d="M54.613,72.1,44.8,95.147l26.919-13.91,2.971-.225V72.1Z" transform="translate(156.866 252.497)"/>
      <path id="Path_2458" data-name="Path 2458" d="M39.12,17.49,56.991,28.654l7.382,61.76-1.666,45.375H48.483Z" transform="translate(136.977 61.282)" fill="#111"/>
      <path id="Path_2459" data-name="Path 2459" d="M40.54,50.162a6.932,6.932,0,0,0,6.932,6.977H48.6a6.932,6.932,0,0,0,6.932-6.977h0A6.932,6.932,0,0,0,48.6,43.23H47.472a6.932,6.932,0,0,0-6.932,6.932Z" transform="translate(141.949 151.41)" fill="#e2c7b5"/>
      <path id="Path_2460" data-name="Path 2460" d="M45.363,17.49,27.492,28.654,20.11,90.414l1.666,45.375H37.261Z" transform="translate(70.414 61.282)" fill="#111"/>
      <path id="Path_2461" data-name="Path 2461" d="M35.855,50.162a6.932,6.932,0,0,1-6.932,6.977h-1.08A6.932,6.932,0,0,1,21,50.162h0a6.932,6.932,0,0,1,6.977-6.932h1.08a6.932,6.932,0,0,1,6.932,6.932Z" transform="translate(73.531 151.41)" fill="#e2c7b5"/>
      <path id="Path_2462" data-name="Path 2462" d="M81.165,36.271c-2.386,16.25-12.2,29.755-27.009,29.755s-24.893-13.5-27.009-29.755C23.862,13,30.794,1.52,54.157,1.52,78.329,1.52,84.181,15.745,81.165,36.271Z" transform="translate(92.366 5.364)" fill="#e2c7b5"/>
      <path id="Path_2463" data-name="Path 2463" d="M63.855.617A47.31,47.31,0,0,0,37.341,3.9,20.122,20.122,0,0,0,26.087,25.826a69.457,69.457,0,0,0,2.926,15.8c.72.765,9.678-4.5,13.5-5.177,10.894-2.386,40.2-9.723,31.51-28.359A13.909,13.909,0,0,0,63.855.617Z" transform="translate(90.14 0.009)" fill="#441707"/>
      <path id="Path_2464" data-name="Path 2464" d="M50.781,17.144c0,3.826.5,11.974-1.621,15.17-5,7.607-13.5-14.18-13.5-19.221a13.5,13.5,0,0,1,3.151-9.453,6.977,6.977,0,0,1,9.993,0C51.457,7.285,50.781,13.182,50.781,17.144Z" transform="translate(124.776 5.405)" fill="#441707"/>
      <path id="Path_2465" data-name="Path 2465" d="M110.073,129.9V43.7A27.009,27.009,0,0,0,83.065,16.69H49.709A27.009,27.009,0,0,0,22.7,43.7v86.2Z" transform="translate(79.483 58.481)" fill="#191919"/>
      <path id="Path_2466" data-name="Path 2466" d="M28.79,16.68l16.115,55.1,16.34-55.1Z" transform="translate(100.807 58.446)" fill="#fff"/>
      <path id="Path_2467" data-name="Path 2467" d="M37.027,18.89l-1.125.225-1.125-.225-3.376,19,4.5,22.327,4.456-22.327Z" transform="translate(109.946 66.184)"/>
      <path id="Path_2468" data-name="Path 2468" d="M38.837,23.207a3.6,3.6,0,0,1-3.6,3.646h0a3.646,3.646,0,0,1-3.646-3.646V20.281a3.6,3.6,0,0,1,3.646-3.6h0a3.6,3.6,0,0,1,3.6,3.6Z" transform="translate(110.611 58.446)"/>
      <path id="Path_2469" data-name="Path 2469" d="M23.57,41.84,35,189.353H57.241L64.488,41.84Z" transform="translate(82.53 146.543)" fill="#191919"/>
      <path id="Path_2470" data-name="Path 2470" d="M73.318,41.84,61.885,189.353H39.647L32.4,41.84Z" transform="translate(113.448 146.543)" fill="#191919"/>
      <path id="Path_2471" data-name="Path 2471" d="M34.2,74.61,23.8,99.053,52.339,84.288l3.151-.225V74.61Z" transform="translate(83.335 261.286)"/>
      <path id="Path_2472" data-name="Path 2472" d="M55.492,74.61l10.4,24.443L37.351,84.288,34.2,84.063V74.61Z" transform="translate(119.75 261.286)"/>
    </g>
  </g>
</svg>
