<svg xmlns="http://www.w3.org/2000/svg" xmlns:xlink="http://www.w3.org/1999/xlink" width="144" height="144" viewBox="0 0 144 144">
  <defs>
    <linearGradient id="linear-gradient" x1="0.5" x2="0.5" y2="1" gradientUnits="objectBoundingBox">
      <stop offset="0" stop-color="#fff" stop-opacity="0.49"/>
      <stop offset="0.499" stop-color="#fff" stop-opacity="0.031"/>
      <stop offset="1" stop-color="#fff" stop-opacity="0"/>
    </linearGradient>
  </defs>
  <g id="Usermanagement_icon" transform="translate(-1354 -4785)">
    <path id="Path_3180" data-name="Path 3180" d="M15,0H129a15,15,0,0,1,15,15V129a15,15,0,0,1-15,15H15A15,15,0,0,1,0,129V15A15,15,0,0,1,15,0Z" transform="translate(1354 4785)" fill="#829eee"/>
    <text id="User_Management" data-name="User 
Management" transform="translate(1427 4893)" fill="#fff" font-size="16" font-family="Raleway-Bold, Raleway" font-weight="700"><tspan x="-19.496" y="0">User </tspan><tspan x="-50.864" y="19">Management</tspan></text>
    <rect id="Rectangle_1278" data-name="Rectangle 1278" width="138" height="138" rx="15" transform="translate(1357 4788)" fill="url(#linear-gradient)"/>
    <path id="team" d="M62,26H59.753L56.4,27.762a4.972,4.972,0,0,0-1.192-.49L51,26.218v-.479A7.023,7.023,0,0,0,54,20V18.252A7.185,7.185,0,0,0,47.215,11c-.19,0-.377,0-.565.011l1.092-2.557-5.3-5.294L39.325,5.195a16.915,16.915,0,0,0-3.743-1.553L34.811,0H27.19l-.771,3.643A16.9,16.9,0,0,0,22.676,5.2L19.554,3.164,14.263,8.455l1.074,2.559c-.041,0-.08-.009-.121-.01A7,7,0,0,0,8,18v2a7.02,7.02,0,0,0,3,5.738v.48l-2.748.687L3.271,24H0V44.722L9.838,48h1.916l.239-.838,3.016,1.81a3.113,3.113,0,0,0,3,3.017,3.113,3.113,0,0,0,3,3,3.113,3.113,0,0,0,3,3,3.11,3.11,0,0,0,4.863,2.469l.886.782a3.045,3.045,0,0,0,2.012.76h.185A3.045,3.045,0,0,0,35,59a3.042,3.042,0,0,0,3-3,3.042,3.042,0,0,0,3-3,3.075,3.075,0,0,0,3-3.068,2.928,2.928,0,0,0-.015-.3L62,40.619ZM52,18.252V20a5.019,5.019,0,0,1-2.5,4.327l-.5.289,0,3.165,5,1.248L43,34.817V32.123a4.976,4.976,0,0,0-1.432-3.485L45,27.781V24.614l-.5-.289A5.014,5.014,0,0,1,42,20V18a5,5,0,0,1,5.155-5A5.17,5.17,0,0,1,52,18.252ZM32.508,34.031l-4.527-1.447a12.349,12.349,0,0,0-6.408-.292L21,32.419v-.3a3,3,0,0,1,2.272-2.911L29,27.781V24.614l-.5-.289A5.014,5.014,0,0,1,26,20V18a5,5,0,0,1,5.155-5A5.17,5.17,0,0,1,36,18.252V20a5.019,5.019,0,0,1-2.5,4.327l-.5.289,0,3.165,5.727,1.431A3,3,0,0,1,41,32.123V35.87l-.247.13H40.14l-6.148-1.757a6.3,6.3,0,0,0-1.484-.212ZM21.224,14.967a10.992,10.992,0,0,1,19.511-.081A6.955,6.955,0,0,0,40,18v2a7.02,7.02,0,0,0,3,5.738v.48l-4,1-4-1v-.479A7.023,7.023,0,0,0,38,20V18.252A7.185,7.185,0,0,0,31.215,11,7,7,0,0,0,24,18v2a7.02,7.02,0,0,0,3,5.738v.48l-4,1-4-1v-.479A7.023,7.023,0,0,0,22,20V18.252a7.371,7.371,0,0,0-.776-3.285Zm-4.6-6.048L19.82,5.724l2.812,1.83.538-.33a14.923,14.923,0,0,1,4.33-1.8l.615-.147L28.811,2H33.19l.694,3.28.615.147a14.937,14.937,0,0,1,4.33,1.8l.538.33,2.812-1.83L45.37,8.915l-1.134,2.656a6.99,6.99,0,0,0-2.111,1.4c-.041.04-.076.083-.116.124a12.987,12.987,0,0,0-22.056.06,7.054,7.054,0,0,0-2.206-1.564ZM13,27.781V24.614l-.5-.289A5.014,5.014,0,0,1,10,20V18a5,5,0,0,1,5.155-5A5.17,5.17,0,0,1,20,18.252V20a5.019,5.019,0,0,1-2.5,4.327l-.5.289,0,3.165,3.431.857A4.976,4.976,0,0,0,19,32.123v.741l-3.119.693.081-.283L16,31.426l-5.274-3.077ZM2,26h.729L9.921,30.2,6.292,44.71,2,43.279Zm8.162,20-1.968-.656,3.525-14.1L14,32.574v.286L10.246,46ZM17,48.879a1.129,1.129,0,0,1,.328-.793l1.758-1.758a1.121,1.121,0,0,1,1.586,1.586l-1.758,1.758A1.121,1.121,0,0,1,17,48.879Zm3,3a1.129,1.129,0,0,1,.328-.793l1.758-1.758a1.121,1.121,0,0,1,1.586,1.586l-1.758,1.758A1.121,1.121,0,0,1,20,51.879Zm3,3a1.129,1.129,0,0,1,.328-.793l1.758-1.758a1.121,1.121,0,0,1,1.586,1.586l-1.758,1.758A1.121,1.121,0,0,1,23,54.879ZM27.121,59a1.121,1.121,0,0,1-.793-1.914l1.758-1.758a1.121,1.121,0,0,1,1.586,1.586l-1.758,1.758A1.129,1.129,0,0,1,27.121,59Zm4.836,1h-.185a1.036,1.036,0,0,1-.689-.261l-.748-.66.751-.751a3.109,3.109,0,0,0,.63-.929l.909.757A1.043,1.043,0,0,1,31.957,60Zm8.968-9h-.173a1.073,1.073,0,0,1-.688-.25l-5.423-4.519L33.36,47.768l5.266,4.388A1.044,1.044,0,0,1,37.957,54h-.218a1.043,1.043,0,0,1-.667-.242L31.64,49.232,30.359,50.77l5.266,4.388A1.042,1.042,0,0,1,34.957,57,1.652,1.652,0,0,1,33.9,56.62l-2.232-1.86a3.111,3.111,0,0,0-2.685-1.748,3.113,3.113,0,0,0-3-3,3.113,3.113,0,0,0-3-3,3.114,3.114,0,0,0-5.316-2.1l-1.758,1.758a3.081,3.081,0,0,0-.28.342l-3.072-1.843,2.693-9.425,6.751-1.5a10.3,10.3,0,0,1,5.365.243l1.473.471-4.994,2.5a3.333,3.333,0,0,0-1.85,3v.2a3.349,3.349,0,0,0,5.073,2.872L30.8,41.289a2.064,2.064,0,0,1,2.4.231l8.449,7.6A1.076,1.076,0,0,1,40.925,51ZM60,39.382,43.153,47.807c-.055-.058-.112-.113-.172-.167l-8.448-7.6a4.024,4.024,0,0,0-4.766-.461l-3.725,2.234A1.349,1.349,0,0,1,24,40.65v-.2a1.342,1.342,0,0,1,.746-1.207l5.578-2.789a4.346,4.346,0,0,1,3.117-.289l6.284,1.795L41.247,38,60,28.13Zm0,0" transform="translate(1395.448 4811)" fill="#fff"/>
  </g>
</svg>
